<?xml version="1.0" encoding="UTF-8"?>
<svg id="Layer_1" data-name="Layer 1"
  xmlns="http://www.w3.org/2000/svg" version="1.1" viewBox="0 0 530 530">
  <defs>
    <style>
      .cls-1 {
        fill: #000;
      }
      @media (prefers-color-scheme: dark) {
        .cls-1 { fill: #ffffff; }
      }
    </style>
  </defs>
  <path class="cls-1" d="M360.4,381c48.5-31.3,80.6-85.9,80.6-148,0-97.2-78.8-176-176-176S89,135.8,89,233s32.1,116.6,80.6,148c1.2,17.3,4,38,7.2,57.1l.2,1c-80-34.3-136-113.6-136-206.1S141.3,9,265,9s224,100.3,224,224-56,171.9-136,206.1l.2-1.1c3.1-19.2,6-39.8,7.2-57h0ZM358.1,342.9c-1.6-5.7-3.9-11.1-7-16.2-5.8-9.7-13.5-17-21.9-22.4,19.5-17.6,31.8-43,31.8-71.3,0-53-43-96-96-96s-96,43-96,96,12.3,53.8,31.8,71.3c-8.4,5.4-16.1,12.7-21.9,22.4-3.1,5.1-5.4,10.5-7,16.2-31.1-26.4-50.9-65.9-50.9-109.9,0-79.5,64.5-144,144-144s144,64.5,144,144-19.8,83.5-50.9,109.9ZM265,321c32.9,0,64,8.6,64,43.8s-12.9,104.1-20.6,132.9c-5.1,19-24.5,23.4-43.4,23.4s-38.2-4.4-43.4-23.4c-7.8-28.5-20.6-99.7-20.6-132.8s31.1-43.8,64-43.8h0ZM265,177c30.9,0,56,25.1,56,56s-25.1,56-56,56-56-25.1-56-56,25.1-56,56-56Z"/>
</svg>