<svg xmlns="http://www.w3.org/2000/svg" viewBox="0 0 446 512"><!--!Font Awesome Pro 6.5.2 by @fontawesome - https://fontawesome.com License - https://fontawesome.com/license (Commercial License) Copyright 2024 Fonticons, Inc.--><path d="M445.5 305.9c-.3-3.3-.5-6.4-.3-8.9c.3-3.2-.3-6.5-1.8-9.3c-.1-.5-.2-1.2-.3-1.7c-.3-1.7-.6-3.5-1.2-5.3c-1.2-3.9-1.3-5.6-1.4-6c-.1-3-.9-5.8-2.5-8.3c-.5-1.2-1.2-3-2.4-4.9c-.6-.9-1.1-1.6-1.6-2.3c4.2-9.1 3.3-19.8 2.7-27.4c-.1-.9-.1-1.7-.2-2.4c-.3-4.7-1.3-9.1-2.2-13c-.8-3.5-1.6-7.1-1.5-9.3c.1-2.4-.3-4.9-1.3-7.1c-.8-1.9-1.5-3.8-2.3-5.7c-1.5-3.7-3-7.5-4.7-11.3c-1.3-19.5-10.3-35.6-18.4-49.9c-1.8-3.1-3.4-6.1-5-9.1c-.1-.2-.2-.4-.4-.6c-.3-1.7-.9-3.2-1.7-4.7c-.9-1.7-1.8-3.4-2.7-5.1c-4.4-8.4-8.9-17-17.2-25.4c-3.7-3.7-7.9-7.6-12.9-11.8c-2.4-2-4.7-3.5-6.6-4.7c-1.1-.7-2.4-1.5-2.9-2c-2.7-2.6-5.4-5.9-7.2-8c-.4-.5-1.2-2.2-1.8-3.5c-1-2.1-2.1-4.7-3.8-7.3c-1.8-2.9-3.8-5.1-5.4-6.9c-.9-1-1.7-1.9-2.1-2.5c-.7-1-1.4-2.1-2.1-3.3c-2.2-3.4-4.6-7.2-8-10.8c-9.4-10.4-20.8-14.3-30.9-17.8l-.8-.3c-1.8-.6-3.8-1.3-5.8-2.1c-1.4-.5-2.8-1.1-4.3-1.6C276.8 2.8 268.3 .2 259 0c-.4 0-.7 0-1.1 0c-8.7 0-16.7 2-23.8 3.7l-.9 .2c-1.3 .3-2.6 .7-3.9 1c-.8 .2-1.6 .4-2.5 .7h-28.1c-1 0-1.9 0-3 0c-.9 0-1.9 0-2.7 0c-2.6 .1-5.1 .3-7.4 .7c-7.8 1.3-15.9 3.5-24.6 6.7c-16.8 6.3-30.1 14.8-41.8 26.9c-7.2 7.4-12.2 15.3-17 23c-2.3 3.6-4.4 7-6.7 10.2c-.6 .9-1.3 1.8-1.9 2.7c-3.3 4.6-6.7 9.3-9.9 14.5c-.7 1.1-2.1 2.5-3.7 4.2c-1.8 1.8-3.9 3.9-5.9 6.5c-1.5 1.9-3.1 3.9-4.6 5.8c-15.7 19.7-33.5 42.1-36 71.9c-.6 7.3-.7 13.7-.2 19.8c.1 1.5 .3 3 .4 4.3c.3 3.1 .7 6.4 .3 8.1l-.4 1.9c-1.8 8.1-3.9 17.3-2.5 28c.1 1 .3 1.9 .4 2.8c.5 3.1 .4 3.3 .3 3.7c-1.4 5-6.4 10.1-11.6 15.6c-3.2 3.3-6.5 6.8-9.5 10.6c-7.2 9.2-10.6 19.5-10 29.7c.2 3.5 .9 6.7 1.6 9.5c.3 1.5 .9 3.8 .9 4.7c-.3 3.4 .5 6.8 2.2 9.7c.2 1.8 .4 4.6 .5 6c.1 1.5 .2 2.8 .3 3.9c.1 1 .2 2 .4 3c.2 1.5 .4 2.9 .5 4.2c-.1 .4-.2 1.1-.2 1.5c-.8 4.8-1.7 10.7 1.1 16.6c2.6 5.5 8 9.1 14 9.5c-.7 1.1-1.5 2.2-2.3 3.2c-.6 .8-2.7 2.7-4.2 4.1c-5.5 5.1-12.4 11.5-14.6 20.6c-1.5 6.2 .7 12.7 5.6 16.8c3 2.5 6.7 3.7 10.5 3.7c2.4 0 4.8-.5 7.1-1.6c3.5-1.7 6.6-3.4 9.7-5.6c1-.5 2-1 2.9-1.7c.9-.7 1.9-1.4 2.8-2.1c1.2 2.4 3 4.5 5.4 6.1c.1 .1 .3 .2 .4 .3c0 1.3 .2 2.7 .5 4c-.3 .8-.6 1.6-.9 2.4c-1.5 4.6-.9 9.5 1.4 13.6c-7 16.6-6.6 31.7 1 46c2.9 5.5 8.6 8.8 14.6 8.8c1 0 2.1-.1 3.1-.3c1.7-.3 3.2-.9 4.7-1.6c1 .3 2.1 .4 3.2 .5c.3 0 .7 0 1 0c5.3 0 10.4-2.6 13.5-7c3.1-4.3 3.5-8.9 3.1-12.6c5.3-2.3 9.2-7.2 9.9-13.3c.1-1.3 .3-2.6 .4-3.8c.1-1 .2-2.1 .3-3.1c1.1-.8 2.1-1.7 3.1-2.6c1.8 5.4 6.4 9.5 12.1 10.8c1.3 6.2 6.1 11.4 12.6 12.8l.6 .1c1.2 .3 2.4 .4 3.6 .4c1.4 0 2.9-.2 4.2-.6c1.7 .9 3.5 1.5 5.4 1.8c2.4 3.3 6.1 5.6 10.2 6.4l1.1 .2c.5 .1 .9 .2 1.4 .2c-.2 3.2-.2 7.8 2.1 12.6c1.9 4 5.2 7 9.1 8.5c2.1 2.2 4.8 3.8 7.8 4.6c1.4 .3 2.7 .5 4.1 .5c4.3 0 8.6-1.7 11.7-4.8l.7-.7c1.2-1.2 2.2-2.5 2.9-4c2 .8 4.1 1.2 6.2 1.2c2.3 0 4.7-.5 6.8-1.5c.8 .2 1.6 .3 2.4 .4c.1 .9 .3 1.8 .6 2.7c2.2 6.8 8.6 11.4 15.8 11.4h1.7c4.5 0 8.7-1.8 11.9-5c3.1 2.8 7.1 4.5 11.5 4.5c3.3 0 5.7-.9 6.6-1.3c0 0 0 0 0 0c.1 0 .1 0 .2 0c2.3 1.9 6 4.2 11.3 4.2c2.4 0 4.3-.5 5.2-.8c5.9-1.6 10.3-6.3 11.7-12.1c2.1 .9 4.4 1.5 6.8 1.5c.2 0 .4 0 .6 0c7.9-.3 14.3-6.1 15.7-13.7c2.7-1.1 5.1-3 6.9-5.4c.9-1.3 1.7-2.6 2.2-4.1c0 0 .1 0 .1 0c4.1 0 8.2-1.5 11.3-4.5c.4-.3 .8-.6 1.2-.9c.2 0 .3 .1 .5 .1c.5 .8 1.1 1.5 1.7 2.2c.5 1.7 1.4 3.5 2.7 5.2c3.1 4.3 8.1 6.7 13.3 6.7c.2 0 .4 0 .7 0c2.2-.1 4.3-.6 6.2-1.5c.8 .1 1.5 .2 2.3 .2c2.6 2.1 5.9 3.4 9.3 3.6l1.4 .1c.3 0 .7 0 1 0c5.1 0 9.9-2.3 13.1-6.4c.2-.2 .7-.7 1.1-1c1.2-1.1 2.9-2.6 4.6-4.6c3.2-3.8 6-8.2 8.9-13.8c0-.1 .1-.2 .1-.3c.7 1.4 1.6 3 2.8 4.5c3.2 4 8 6.3 13 6.3c1.5 0 3.1-.2 4.6-.7c6.5-1.9 11.2-7.5 11.9-14.2c1-9.8-1.6-21.4-7.8-34.4c.4-.6 .7-1.2 1-1.8c2.5-5 2.3-10.9-.4-15.7c-.8-2.7-2-5-2.9-6.7c-.1-.3-.3-.5-.4-.8c0-1.1-.1-2.2-.3-3.2c5.3-3.9 7.6-9.9 9.3-14c.1-.4 .3-.7 .4-1c1.6-3.5 3-6.8 4.2-10.1c2.5-6.8 5-14 6.1-21.5c3.5-7.1 4.7-15 5.7-21.6c.2-1.2 .3-2.3 .5-3.3c1.1-6.8 .7-13 .2-18.4zM130.9 431.7c-.7-.9-.1-1.5 .8-1.8c-.2 .6-.5 1.1-.8 1.8zm-4.5-.4c-1.3 3.2-5 6.9-6.7 10c-.5-4.3 3.4-7.9 6.6-10.1c.8-2.2 3.5-5.1 5.5-6.1c-.9 2.2-3.6 4.5-5.4 6.2zm8.5-119.9c-.9 4.4-2.5 8.6-4.8 12.5c.5-3.8 2.6-7.1 3-11c.2-.2 .3-.4 .5-.7c.9-1.7 1.5-5.6 1.6-9.6c.2-5.5-.3-11.3-1.6-12.7c.2-3.4-1.3-6.4-2.7-9.4c-1.1-2.4-2.1-4.8-2.1-7.4c1.3 2.3 2.4 4.8 3.3 7.4c2.6 6.9 4 14.4 3.8 21.9c-.1 3.1-.4 6.1-1 9.1zm.8 99c-.3 .3-.6 .5-1.1 .9v-1.9c.4 .4 .7 .7 1.1 1.1zm-2.7-110.6v3.8c-.3 0-.5 0-.9 0c.1-1.3-.3-2.7 .9-3.9zm0-1.8c-.4 .4-.9 .8-1.3 1.2c-.5-.8 .4-1.4 .6-2.2h.7v1zm2.4 124.8c.2-.3 .5-.8 .9-1.3c.4 .8-.3 1.9 1.2 2.4c2.2-.1 4.9 .4 7.6-.2c-1.8 .7-6.6 2.4-8.3 .8c-1.8 .6-2.7 2.1-3.7 3.6c.2-.8 .3-1.5 .6-2.5c-2.4-2.2-5-4-7.5-6c.4-.4 .7-.8 1.1-1.1c1.9 1.3 5.7 5.1 8.2 4.3zm10.9-47.2c.1 .2 .1 .3 .2 .5c-2.5 1.1-5.7 3.3-8.7 3.5c-.5 0-1 0-1.4-.1c.3-.1 .6-.2 .9-.3c3-1.2 5.9-2.6 9-3.5zm-6.1-55.4c0-1.4 .9-1.6 1.4-2.4c.2 1.3-.7 1.6-1.4 2.4zm1.9 6.5c0-.5 .4-1 1-1c-.3 .3-.7 .7-1 1zm1.7 84.6c0 1.2-.3 1.5-1.6 1.8c.6-.6 1.1-1.2 1.6-1.8zm-5 6.6c-.6 .9-1.2 1.7-1.8 2.6c-.1-1.3 .5-2.2 1.8-2.6zm7 24.3c-.7 .6-1 1.8-2.7 1.8c1.1-.8 1.5-1.8 2.7-1.8zm-25.1-43.4c1-2.1 3.9-6.1 6.4-6.6c-.8 1.3-4.7 6.1-6.4 6.6zm14.8 48.6c-.2 .5-.5 1-.7 1.6c-.7 1.7-1.4 3.4-2.1 5.2c-.4-.1-.5-.1-.6-.1c.1-.9 .2-1.7 .3-2.6c0 0 .1 0 .1 .1c.3-.8 .7-2.1 1.3-3.6c2.2-6 6.3-16.1 10.1-16.3c-2.8 5.5-5.9 10.5-8.4 15.9zm7.3 1.9c-1.2 1.5-2.6 2.5-4.6 2.9c-.1-.4-.1-.5-.1-.8c2.8-1.1 5-3.5 7.4-5.2c.1 .3 .2 .6 .3 .9c.1 .3 .2 .5 .3 .8c0 .1 .1 .2 .1 .3c-.4 .4-.8 .7-1.3 .9c-.7 .2-1.4 .2-2.1 .2zm2.2 6.2c-.1 0-.2 .1-.3 .1c.5-.5 1.1-1.1 1.6-1.6c-.2 .7-.7 1.3-1.3 1.6zm3.4-127.7c.6-.7 .9-1 1.3-1.4c-.1-.2-.2-.4-.4-.7c-1 .5-1.5 1.4-2.4 2c-.2-.2-.4-.4-.8-.8c.3-.7 .7-1.4 1.1-2.2c.3 .2 .4 .4 .9 .8c-.2-.8-.4-1.3-.6-1.9c.3-.2 .7-.5 1-.7c0-.9 .3-1.8-.8-2.3c-.1 .6-.2 1.2-.2 1.8c-.1 0-.2 0-.3 0c-.1-.7-.1-1.5-.2-2.2c-.2-.2-.4-.4-.8-.8v2.6c-.7 .6-1.6 1-2.5 1.1c.3-.4 .7-.8 1-1.1c-.1-.2-.2-.4-.4-.8c-.8 .5-1.4 1.1-2.1 1.8c0-1.4 2.1-2.8 1.8-4c.4 0 .7-.1 1-.1v-1.8c-.1 0-.2-.1-.3-.1c-.2 .6-.5 1.2-.8 2c-.2 0-.4 0-1 0c-.6 .6-1.4 1.4-2.2 2.2c.6-1.4 1.7-2.3 2.4-3.5c-.2-.2-.4-.4-.6-.6c-.4 .3-.8 .6-1.3 .9v-.9c-.5 .1-.9 .3-1.7 .5c.5-1 .7-1.7 1.1-2.4c-.1-.1-.3-.3-.7-.7c-.5 .9-1 1.7-1.5 2.5c-.2-.1-.4-.2-.8-.3c.8-1.2 1.5-2.2 2.4-3.6c-1.1 .2-1.9 .4-2.8 .6c.6-1 1.1-1.8 1.8-3c-1.1 0-2 .6-2.5 1.6c-.1-.2-.1-1.1 0-2.1c.1-1.3 .3-2.7 .2-3.1c-.3-.1-.5-.2-.9-.3c-.1-1.6-.2-3.2-.2-4.7c-.1-7.4 .9-14.2-2.1-21.7c0 0 0 0 0-.1c.2-.3 .3-.6 .6-1c-.4-.1-.6-.2-1-.4v-1.5c-.4-.2-.7-.4-1.1-.5v-.5c.3-.1 .6-.3 1.1-.5c-.7-.7-1.3-1.3-2.1-2.1v-1.3c-.4-.1-.6-.3-1-.4c.1-.2 .3-.3 .4-.5c-.3-.3-.6-.7-.9-.9c.2-.3 .3-.7 .6-1.1c-.6-.1-1.1-.2-1.5-.2v-.8c.4-.1 .9-.1 1.6-.2c-.8-.7-1.4-1.1-2.1-1.7c.3-.7 .7-1.5 1.1-2.3c-.4-.1-.6-.1-.8-.2c-.2 .3-.3 .7-.5 1.1c-.2-1-.3-2.1-.5-3.1c-.5-2.7-1.1-5.3-2.6-7.6c.2-.6 .4-1.1 .6-1.7c-.5-.2-.8-.4-1.3-.6c.5-.5 .8-.9 1.2-1.3c-.1-.1-.1-.2-.2-.3c-.6 .2-1.1 .3-1.7 .5c-.1-.1-.1-.2-.2-.3c.4-.2 .8-.5 1.5-.9c-.9-.1-1.3-.2-1.6-.3c.2-.3 .4-.6 .6-1c.5 .2 .9 .4 1.5 .7c0-.6 .1-1 .1-1.7c-.8 .8-1.6-.1-2.3 .4c-.5-.9 .3-.8 .8-1c.1-1.2-.3-2.2-1.3-3c.2-.1 .4-.1 .9-.3c-.4-1.4 1.5-2.4 .8-4.2c-.4 .3-.8 .6-1.1 .9c-.2-.5-.5-.9-.8-1.7c.3-.1 .7-.3 .7-.3c.2-1 .3-1.5 .4-2c-.2-.2-.4-.4-.6-.6c-.4 .1-.7 .3-1.1 .4c.4-.4 .8-.9 1.4-1.6h1.2c.1-1.1-.8-1.3-1.5-1.5c1.2-.5 2.3-.9 3.4-1.4v-.8c-1.4-.1-1.7 1-2.9-.4c.3-.1 .6-.2 1-.4v-2c.2 .3 .3 .5 .5 .7c.2 .4 .5 .7 .7 1.1c.1-.3 .2-.6 .2-.9c0-.6-.4-1.1-1-1.6c.5-.7 1.4-1.1 1.5-2.2c-.5-.2-1-.5-1.5-.8c-.3 .2-.5 .3-.8 .6c-.2-.5-.4-.9-.8-1.8c.6 .5 .8 .7 1 .8c.2-.2 .4-.4 .8-.7c-.4-.3-.8-.5-1.2-.8c.4-.3 .7-.5 .9-.7c.3 .1 .7 .3 1.1 .4c.1-.1 .2-.2 .3-.3c-.3-.5-.6-1-1-1.5c.2 0 .5-.1 .7-.2c.5-.7 0-1.3-.3-1.9c.2-.4 .4-.8 .6-1.3c.9-.2 2.2-.2 1.7-1.9c-.3-.1-.6-.2-.8-.3c.6-.5 1.3-1 2-1.6c-.2-.3-.3-.6-.5-.9c.3-.4 .7-.8 1.1-1.2c.2 .1 .4 .3 .9 .6c0-1.3 1.7-1.7 .9-3.3c-.4 .2-.7 .4-1 .6c-.1-.1-.1-.4-.3-.7c.7-.3 1.4-.6 2.1-.9c.5 .6 1 1.2 1.2 1.5c.4-.2 .8-.4 1.2-.6c.7-.3 1.3-.6 1.9-.9q1 .8 2.1 1c.2-.3 .4-.7 .7-1.2c.7 .7 1.3 1.3 2.2 2.1c.2-.8 .3-1.2 .5-1.9c.5 .4 1 .7 1.5 1c.2-.4 .5-.8 .8-1.3h2.3c.3 .6 .7 1.3 1.2 2.2h1.2c.5 .6 .9 1.1 1.2 1.5c-.4-.1-.9-.2-1.4-.3c-.3-.1-.7-.1-1.1-.2c.4 .6 .7 .9 1 1.2c.6 .6 1.2 .7 2.3 .8v-.9c.6 0 1.2-.1 1.7-.1c.2 .5 .4 1 .6 1.4c-.3 0-.4 0-.6 0c-.1-.3-.3-.6-.5-1.1c-.4 .2-.8 .4-1.2 .6v.8c.4 .1 .9 .1 1.4 .3c0 .4 0 .9 0 1.3c.5 .1 1 .3 1.6 .5c.2-.1 .4-.3 .6-.4c.2 .6 .4 1.2 .7 1.9h2.5c-.8 .8-.5 1.6-.5 2.6c.5-.2 1.1-.2 1.8-.2c.1-.6 .1-1.2 .2-1.9c.4 0 .8 0 1.1-.1c.2-.3 .4-.7 .7-1.2c.5 .7 .9 1.2 1.3 1.8c.8-.2 1.4-.5 2.2-.7c.4 .4 .9 .8 1.2 1.2c1.5-.7 .8-2 3-2.1c0-.4 .1-.8 .1-1.4c.5 .3 .8 .7 1.2 1h1.4c-.1-.1-.1-.2-.2-.2c.3-.2 .7-.4 1.2-.7c-.4-.4-.7-.7-.9-1c-.2 .1-.3 .3-.6 .5c-.8-.1-1.6-1.3-2.6-.3c.2-.5 .5-1.1 .8-1.9c.3 .5 .5 .9 .7 1.2h2.8c.1 .5 .1 .8 .1 1.1c.6 .4 1.1 .7 1.7 1.1c.5-.3 1.1-.7 1.6-1v-1.5c-.7 .5-1.2 .8-1.6 1.2l-1.2-1.2c2.6-.7 5.6-1.5 7.8-3.3c-1.8-1.2-4.1 .9-5.9 1.2c-2.6 .5-5.3-.2-7.8-.3c-1 0-2.2 .2-3.3 0c-3.9-.7-5.6-3.8-9.1-5.3c.3-.4 .5-.7 .7-1h1.8c2.2 1.4 4.1 2.4 6.7 3.3c.4-.1 1-.4 1.9-.8c-1.2-.3-2.1-.6-3.2-.9c-.3-.3-.6-.8-1-1.1c-.1-1.3 .7-1.5 1.3-1.8v-2.1h-.8v1.8c-.5 .4-1 .9-1.5 1.3c.2 .3 .5 .5 .9 1c0 .1 0 .4 0 .7c-.7-.5-1.3-.9-2.1-1.4c.8-1.1 1.9-2.1 1.5-3.6c1-1 1.9-1.9 3.1-3.1c.3 1.6 .6 2.8 .8 3.8c3.9 3.4 7.7 6.6 13.2 5.5c1.5-.3 2.7-.8 3.7-1.4c1.7-1.2 2.9-2.8 3.8-4.8c.6-1.4 1.2-2.9 1.8-4.4c0 0 0 0 0-.1c.5 .5 1 1 1.2 1.2h2.4c.3-.3 .6-.6 .9-.8c1.6 .2 2.6 2.2 2.8 3.5c-1 .2-1.3 1.5-2.4 1.3c-.4 .8-1.5 .6-2.1 1.1c-.1 .1-.3 .3-.3 .5c.3 .1 .5 .1 .8 .1c1.7 .1 2.9-.8 4.2-1.8c.3 .1 .7 .3 1 .4c.1-.1 .2-.2 .3-.3c-.3-.5-.6-1-.9-1.5c.4-.2 .9-.5 1.5-.8c.5 .6 .9 1.1 1.6 2c.1-1 .2-1.6 .3-2.4c2-.1 3.9 .4 5.5 2c.1-.5 .1-.9 .2-1.3c.3-.1 .6-.3 .9-.4c-.5-2.7-4.6-1.3-4.9-4.4c-1-.8-2.4 1.5-3.2-.4c.2-.2 .3-.5 .7-.9c-2.1-.5-3.6-2.3-5.7-1.7c-1.1-.7-2.1-1.3-3.1-1.9c-.6 0-1.2-.1-1.7-.2c-5.5-.6-10.3-1.6-15.9-.4c-2.3 1.3-5.4 .3-8.1 1c-.1 0-.2 0-.3 .1c-1.7 3.3-6.6 2.5-7.9 5.6h-1.4c-.4-.5-.9-1-1.4-1.5c-.5 .5-.9 .8-1.4 1.3c.1-2 3.7-4.7 5.5-6.5c.2-.2 .3-.4 .5-.5c.7 .2 1.4 .4 2.3 .7c-.2-.6-.3-1-.5-1.5c3.3-1.8 13.1-6.7 18.5-6c.8 .1 1.5 .3 2.1 .7c2.6-.4 5.9 2 8.4 .9c.4 .5 .9 .9 1.3 1.4c.7 .6 1.3 1.3 2 1.9c.9 .5 1.4-.3 1.9-.8c.9 .6 2.2 .4 2.6 1.8c-.4-.1-.8-.2-1.4-.3c.3 1.5 1.5 1.8 2.7 2.4c.2-.4 .3-.7 .5-1c.2 0 .4 0 .9 .1c-.2 .5-.3 .8-.5 1.4h.9c.2-.9 .8-.4 1.4-.4v.9c.3 .3 .6 .6 1 1h1.4c.3 .4 .6 .7 .8 1h-1.3c1.2 1 1.7 1.9 3.1 2.6c.2-.5 .3-.8 .4-1.1h2.3l-1.3 .4q-.1 .9 .9 2.7h2.2c.2-.3 .5-.7 .9-1.3c.2 0 .6-.1 1.1-.1v-1.8c.6 1 1.3 1.7 2.4 2v1.9c.4 .4 .7 .8 1.1 1.2c-.2 .4-.4 .7-.8 1.3c.3 .1 .7 .3 1.2 .5c.4-.8 .9-1.8 1.3-2.7c-.2-.6 .2-3-.3-3.5c1.2-1.7-.5-4.1-.5-5.9c0-2.4 1.3-4.2 .2-6.7c.3-.2 .6-.4 1-.6c.1-.1 .3-.2 .4-.3c-.8-.6-1.3-1-1.5-1.2c-.3-1.2-.4-2-.6-2.8c.6 .1 1.2 .2 1.9 .3c-.1-1.1-.7-1.9-1.3-2.5c-.3-.3-.6-.6-.9-.9c-.8 .1-1.4-.1-1.7-1c.8-3.3 4.2-6 7-8.6c.8-.8 1.6-1.5 2.2-2.3c.7-.8 1.4-1.6 2.1-2.4c.1-.1 .2-.3 .3-.4c2.5-3 4.9-5.9 6.6-9.5c.2 .1 .3 .2 .5 .3c-.5 4.5-2 9.1-3.4 13.4c-.2 .6-.4 1.1-.6 1.7c-.4 1.1-1.3 2.9-2.3 4.7c-1.2 2.4-2.5 5-2.8 7c-.1 .7-.1 1.4 0 1.9c2.3 .2 3.5-1.5 5-2.9c0 .1 0 .2 0 .3c.1 .4 .1 .7 .2 1.1h4.7c.1-.2 .4-.5 .8-1.1c.6 1.8-1.5 2.8-.6 4.4h2.6c.2-.2 .6-.5 1-.9c.8 .1 1.5 .4 2.1 .8c-.2 .9-.4 1.9-.6 2.8c.6 .6 1.1 1.1 1.7 1.7h2.9c.5 .5-.1 .5-.2 .9c.6 .4 1.2 .8 1.9 1.3c-.5 .3-1 .6-1.5 1c.9 1 2 1.4 3.2 1.3c.1 .2 .1 .2 .1 .3c-.4 .1-.7 .2-1.3 .3c-.2 .5-.5 1.1-.7 1.7c.4 .6 .8 1.1 1.4 2.1c-.7-.2-.9-.3-1.4-.5c.2 1.1 .6 1.9 1.5 2.5c-.3 .4-.7 .7-1 1c-.2 1.1 1.2 2.1 0 3.3c.4 .7 .9 1.3 1.3 2c-.2 .1-.5 .2-.8 .3c-.6 1.1 1.3 2.3 0 3.4c.3 .6 .6 1.1 1.1 1.8c.4-.4 .6-.7 1.1-1.1c-.5-.3-.9-.5-1.3-.8c.4-.7 .7-1.3 1.1-2.1c-.1-.2-.3-.4-.5-.7c.1-.2 .1-.5 .2-.8s.2-.6 .2-.8c.5-.2 1-.3 1.5-.5c-.2-.9-.4-1.6-.6-2.4c.9 .2 1.6 .4 2.4 .6c0-.7 .1-1.3 .1-1.9h1.2c.3 .7 .6 1.5 .9 2.5c.5-.4 .9-.7 1.4-1.1c-.3-.4-.5-.6-.8-1c.7-.1 1.3-.1 1.9-.1c0-.4 .1-.8 .1-.8c.8-1 1.4-1.7 2.1-2.5c.3 0 .7-.1 1.1-.1c.4-1.2 1.5-2.4 2.7-3.4c.6-.5 1.2-.9 1.8-1.4c1.5-1 3-1.9 4.2-2.8h1.3c.1 .3 .2 .6 .3 .9c2-.3 2.7-2.5 4.8-2.4c.1 .3 .3 .6 .5 .9c.2 0 .4 0 .8-.1c-.1-.4-.3-.7-.4-1.1c.4-.3 .9-.7 1.7-1.2c2.3 .5 4.5-1.1 7-1c.3-.3 .7-.6 1.1-1.1c.8 .8 1.7 .9 2.5 0c.4 .3 .8 .5 1.1 .7c.2-.4 .4-.8 .6-1.2c2.1 .8 4.1 1.7 6.3 2.1c.2 1 1.1 1.4 1.9 1.9c0 0 .1 0 .1 .1c.5 .4 1 .8 1.1 1.5c-.1 .1-.3 .2-.5 .4c-.2-.1-.3-.3-.5-.4c-.5-.4-1-.8-1.6-1.3c-.4 .4 .5 1.3 1.7 2.4c.2 .2 .3 .3 .5 .5c.8 .7 1.6 1.4 2.3 2c.5 .5 .9 .9 1 1.3c-.3 .1-.6 .1-.9 0c-1-.1-1.8-.4-2.9 .1c-.1 0-.1 0-.2 .1c-.7-.2-1-1.3-2-1c-.3-.7-1.1-.9-1.5-1.4c-.3 .3-.7 .6-1.1 1.1c-.5-.4-.9-.7-1.5-1.1c-.3 .2-.6 .3-1.1 .6c-.3-.3-.6-.6-1.2-1.1c-.7 .1-1.5 .1-2.6 .3l-.8-.8c-.5 .2-1.2 .4-2 .6c-.7-.4-1.5-.9-2.3-1.4c-.3 .2-.7 .5-1.1 .8h.8c0 .4 .1 .9 .1 1.4c-.1 0-.2 .1-.3 .1c-.3-.5-.5-.9-.9-1.5h-2.1c.2 .5 .3 .9 .5 1.4c-.3 0-.5 0-.8-.1c-.7-.2-1.2-.7-1.8-.9c-.4 0-.8 .7-1.3 .4c-.1-.1-.2-.2-.4-.4c-.4 .5-.8 1-1.2 1.5c-1.4 .1-4.2 .2-5.1 1.6c-.2 .7-.5 1.5-.9 2.5c-.2-.5-.3-.7-.4-1.1c-1-.2-1.7 .2-2.2 .9c-.1 .2-.2 .3-.3 .5c-.2 0-.4 0-.6 0c-.2 0-.5 0-.8 0v-.7c.4-.2 .8-.4 1.1-.5c-.1-.2-.1-.5-.2-.7c-.5 .3-.9 .5-1.3 .8c0 .4 .1 .8 .1 1.1h.2c.2 .4 .2 .9 .2 1.6c-.6-.3-1-.5-1.6-.7c-.5 .8-1.3 1.1-2.2 1.2c0 .4-.1 .8-.2 1.4c-.5-.2-1-.4-1.6-.6c-.3 .4-.6 .8-1 1.4c.1 .5 .2 1.2 .3 1.8c-.4 .2-.7 .3-1 .4c0 .2 0 .4 0 .7c.8-.2 3.4-.8 4 0c.7-.4 1.3-.9 2.1-1.4c.1 .3 .1 .5 .2 .8c.6 .2 1.2 .4 2 .7c.1-.2 .3-.3 .4-.4c1-.6 2.2 1.1 3.4 .1c-1-.6-1.9-1.1-3.1-1.8c.6-.5 1.2-1 1.9-1.4c.3-.2 .6-.5 .9-.7c.1 .1 .4 .2 .7 .4c.5-1 1.3-1.7 2.4-2c.4 .2 .8 .4 1.6 .8c-.3-.8-.4-1.1-.5-1.6c.1 0 .3-.1 .5-.2c2.2 2.9 1.8 6.4 4.7 9.1c1.3 1.2 2.5 1.9 3.7 2.2c.1 0 .2 .1 .3 .1c2.3 .6 4.7 .2 7.7 .2c1.8-1.5 3.6-3 5.6-4.8c.2-.9 .4-2.1 .7-3.4c1 .6 2.1 1.3 3.1 1.9v1.8c.4 .3 .8 .6 1.6 1.2c-.1 0 .4 .1 1.3 .2c-2.1 .5-3.4 .8-4.9 2.5c.3 .2 .6 .4 .9 .6c1.3 0 1-1.2 1.4-2c1.9 1.4 6-1.3 8.2-2c.7-.7 1.5-1.5 2.3-2.3c.1-.1 .2-.2 .3-.3v-1h.9c0 .5 .1 1 .1 1.7c-.2 .1-.3 .3-.5 .4c-.4 .3-.8 .7-1.4 1.2v1.4c-.4 0-.8 .1-1.1 .1c-.7 .8-1.3 1.6-2 2.4c-.2-.2-.4-.3-.6-.5c-1 1-7.2 5.2-8.5 4c-1.7 .6-3.3 1.1-4.6 1.6c-1.2-.2-2.4-.4-3.6-.6c-1.1 .9-2.4 .2-3.6-.7c-1.1 .9-2.4 .4-3.7 .5c-.2-.2-.3-.3-.5-.5c-.1-.1-.2-.2-.2-.3c-.1-.1-.1-.1-.2-.2c-.1 0-.1 .1-.2 .1c-1.7 1.1-4.4-.4-5.5-1.9c-.1-.1-.2-.2-.2-.3c-.2 .1-.4 .2-.6 .3c-.1 .1-.3 .2-.4 .3c-.2-.1-.5-.2-.7-.3c-1.7-.6-3.5-.9-5.3-.9c-.6 0-1.1 0-1.7 0c.8 .1 1.5 .1 2.5 .2c-.2 .7-.4 1.4-.6 2c.2 .2 .4 .4 .7 .7c.2-.1 .3-.2 .6-.5c.6 .3 1.2 .6 2 .9c0 .4 .1 .8 .1 1.1c.8 .8 1.5 1.5 2.2 2.2c0-.1 .1-.4 .3-.9c.6 .2 1.1 .3 2.1 .6c-.4-.5-.6-.7-.8-.9c1.4-.4 2.6-.1 3.7 .8h2.8c.3 .3 .5 .7 .8 1c.5-.9 1.9-.3 2.1-1.5c.8 .9 1.7 .4 2.5 .6c.3 .3 .5 .5 .9 .9c.5 0 1 .1 1.6 .1c.2 1 .2 2.3 2 1.8v-1.1c1.4-.4 2.7-.2 3.3-1.9c.1 .7 .2 1.1 .3 1.7c2.1-.4 3.1-.4 5.2 .2v-2.1c.8 .2 1.3 .9 1.5 1.9c-.1 .3-.3 .8-.6 1.4h1.4c0-.3 .1-.8 .2-1.4c.3 0 .6 0 1.3 0c-.2-.3 .1-.7 .5-1.2c.6 .8 1.1 1.5 1.6 2.2h1.2c.1-.4 .1-.8 .2-1.2c1.1 .5 2.3 .9 3.2 1.3c.9-.3 .1-1.3 .8-1.5c.4 .6 .7 1 .8 1.3c1.2-.2 2.2-.3 3.1-.5c-.1-.1-.1-.1-.2-.2c.3-.1 .6-.2 .9-.3c0-.1-.1-.2-.1-.3h-1.7c-.2-.6-.3-1.1-.4-1.5c-.1 0-.3 0-.4 0c-.2 .5-.3 1-.5 1.5h-1.4c0-.9-.8-.2-1.2-.7v-1c.2 0 .4-.1 .6-.2c.2 .4 .3 .7 .4 .9c.3-.2 .6-.4 1.2-.7c-.7-.4-1-.6-1.5-.8c.2-.4 .5-.7 .8-1.2c.2 .8 .7 1.3 1.6 1.4c.7-.7-.5-1.7-.3-2.6c.2-.7 .9-1 1.4-1.5c.3-.3 .6-.7 .6-1.3c.6 .3 1 .5 1.5 .7c.4-.3 .8-.7 1.3-1.1c.4 .4 .8 .7 1.2 1c.4-.3 .9-.7 1.6-1.1c.1 .7 .2 1.1 .2 1.6c1 .5 1.1-.8 2-.9c.3 .3 .7 .6 1 1c.4-.4 .8-.7 1.3-1.2c.6 1.3 1.5 2.2 .4 3.5c.2 1-1.2 2-.1 3.1c.6-.5 1.2-1 1.9-1.5c.9 1.2-.6 1.6-.8 2.3c.4 .9 1 1.1 2 1c-.1 .6-.1 1.2-.2 1.7c.5 1 1 2.1 1.6 3.4c0 0 0 .1 0 .1c0 1.3 .2 2.7 .4 4c.8 5.8 2.5 11.5 3 17.3c.3 3.5 .1 7.1 .1 10.7c0 1.1 .1 2.1 .1 3.2c.2 3.4 .7 7 .3 10.3c1.6 3.2 1.4 9.5 1.4 13l-.8 .8c0 .2 0 .3 .1 .5c.3 1.6 .9 3.1 1.3 5.1c-.8-.4-1.1-.6-1.4-.8c-.3 1.1 .7 2.7 1 3.7c1.3-.7 .4-2.1 .8-3.3c.4 .2 .7 .5 .9 .9c-.4 1.4-.8 2.8-1.2 4.3c-.5-.5-1-.9-1.6-1.5c-.3 1 .5 1.5 .8 2.3c-.1 .1-.2 .3-.4 .4c0 1.2 2 2.1 .4 3.5c-.7-.8-1.3-1.5-2.4-2.7c.4 1.5 1 2.4 2 3.7c0 .9 .2 1.9-.7 2.7c-.9-1.4-1.3-3.1-2.4-4.6l-.7 .7c.8 1.3 .1 2.8 .5 4.1h.7c.1-.5 .1-.9 .2-1.7c.5 .7 .8 1.2 1.1 1.7c0 0 .1 0 .1 0c0 0 0 0 0 0c0 0 0 0 .1-.1c.1 0 .2-.1 .4-.1c-.2 0-.4 .1-.5 .1c.1 .3 .1 .5 .1 .8c0 .2 0 .5 0 .7c.4 .6 .9 1.3 1.4 2.1v3.9c-.4-.7-.6-1.1-.9-1.6V303c-.4-.3-.8-.7-1.2-1.1c-1.4 1.4 .5 5.9 .1 7.7c-1.2-1.6-2.3-3-3.7-4.4c.4 2.1 .4 4.3 .4 6.5c-.5 .4-.5-.2-.9-.3c0 .8-.1 1.5-.2 2.8c-.8-1.6-1.4-2.9-2.1-4.3c-.4 .3-.8 .6-1.3 .9c.3 .5 .4 .9 .7 1.3c-.4 .2-.7 .4-1 .5c.2 .7 .3 1.4 .6 2.4c-.9-1.1-1.6-1.8-2.6-3c.1 2.5 1.5 4.1 2 6.1c-1.5-.6-1.5-2.3-2.8-2.8c-.5 1.9 1.7 2.8 1.8 5c-.9-1.1-1.5-1.9-2.2-2.7c-.3 .1-.5 .2-.9 .3c1.6 2 2.7 4.2 3.1 6.7c-.2 .1-.4 .2-.7 .3c-.8-1.4-.1-3.5-2-4.6c.1 2.2 0 3.4-.8 5.3c0 .1-.1 .2-.1 .4c-.1-.3-.2-.5-.3-.8c-.7-1.6-1.4-3.2-2.2-5.2c0 0-.4-.4-.9-.8c-.4 1.1 1 2.3-.2 3.2c.1 .2 .2 .4 .2 .7c.8 2.1 1.6 4.1 1.1 6.5c-.7-1.8-.5-3.7-1.8-5.2c-1.6 1.8 1.8 3.9-.2 5.5c-.2-1.1-.5-2.2-.7-3.3h-1.3c-.2 .8-.1 1.6 .4 2.3c-.4-.2-.8-.4-1.5-.7c.2 .7 .3 1.1 .5 1.5c-.9 .3-2.5-2-3.3-2.8c.2 1.9 1.6 3.1 .9 4.7c-.9-.3-1.9-.5-2-1.8h-1.3c.1 .2 .2 .4 .2 .6c-.1 .9-.3 1.8-.4 2.8c-.3-.2-.7-.4-1.2-.7c-.1 .9-.1 1.6-.2 2.5c-.3 .3-.7 .7-1.2 1.1c-.6-.7-.4-1.9-1.5-2.7c-.1 3.5-.1 5.3-1.4 8.7c-.1-1-.1-1.7-.2-2.4c-1.8-1.7-.6-5.7-1.3-7.9c.7-1.4 1.5-2.8 .5-4.6c.2-.1 .4-.1 .6-.2c.5 1.2 1 2.3 1.5 3.5c.3-.1 .5-.2 .8-.3c-.9-3.2-1.6-4.9-1.6-7.7c0-.7 0-1.4 .1-2.2c-.3 0-.5 0-.9-.1c-.2 .9-.1 1.8-.1 2.7c0 .7-.2 1.5-.7 2.2c-.3-.4-.5-.9-.7-1.3c-1.3-3.1-.7-6.5-1.7-9.6c0-.1-.1-.2-.1-.3c-1-2.6-3.1-4.8-5.1-7c-.2-.2-.4-.4-.5-.6c-1.5-1.7-2.8-3.4-3.5-5.4c-.1-.2-.1-.4-.2-.6c.2 0 .4 .1 .6 .2c.9 .5 .9 2 2.3 2.2c0-.1 0-.2-.1-.3c-.3-1.1-1.3-2-1.4-3.2c0-.1 0-.3 0-.4c.5 .2 .9 .3 1.4 .5c-.5-.4 0-1.8-1.2-1.4c0 .2-.1 .4-.2 .9c-.3-.1-.6-.2-1.4-.4c-.7-.7-.8-1.7 0-3.5c-.8-1.4-1.3-3.1-3.1-3.9c-.1 .2-.3 .3-.4 .5c.4 .5 .7 .9 1.2 1.6c-2.4-.3-3.7-2-5.3-3.5c-.4 .4-.9 .7-1.3 1c-1.9-1.6-3.8-3.2-5.8-4.9c-.3 .2-.6 .3-1 .6c-.8-.3-1.9-1.1-3 .3c1.7 .2 3.1 .8 4.3 2.1c-.2-.1-.4-.1-.6-.2c-.2-.1-.5-.2-.9-.3h-1.9c-.6-.5-1.2-1-1.8-1.6c-1-.9-2.1-1.9-3.2-2.9c-.3 .5-.5 .9-.7 1.3c-1.1-1.1-2-2-2.7-2.7c-.2-.7-.3-1.2-.5-1.7c1.6-.2 2.6 1 3.8 1.9c1.7-1.3-3.1-3.1-3.7-3.5c-.1 0-.2 0-.3 0c-3.6 .1-6.4-4-10-3.9c.9-.5 1.7-1.5 2.6-.5c1.4-.2 2.6-.4 4-.6c0 0 .1 .1 .4 .4c.7-.4 1.5-.9 2.3-1.4c.1 .1 .4 .2 .8 .5c.1-.7 .6-1.2 1.3-1.3v-2c.4-.1 .6-.2 1-.4c-.2-.5-.4-.9-.6-1.4c0 0 0 0 0 0c.4-.2 .7-.3 1.2-.6c-.7-.7-.6-2-.1-3.6c.8-2.8 2.3-6.3 1.2-8.5l-.6-.6c-.8 1.1-.2 4-.6 5.4c-.3 1.1-.7 2.2-1.2 3.3c-.5 1-1.1 2-1.7 2.8c-.2 .3-.5 .6-.7 .9c-.8 .9-1.6 1.7-2.5 2.3c-2.7 2.1-5.9 3.1-9.4 4.5c.5-.7 1-1.5 1.5-2.3c.2 .2 .4 .3 .5 .4c.4-.3 .8-.7 1.2-1c.4 .2 .7 .4 .9 .5c.9-.4 2.5-1.2 3.6-2.2c.5-.5 .9-1.1 .9-1.7c.3-.4 .6-.8 .9-1.2c.6-.9 1.2-1.7 1.8-2.5c.1 .4 .1 .8 .3 1.5c.4-.2 .8-.4 .9-.4c.4-.4 .4-1 0-2.1c-.1-.3-.2-.6-.4-1c-.3 .2-.6 .3-1 .5c-.7-1.7-.7-3.2-.7-5.1c-.4-.2-.8-.4-1.2-.6c-.1 .1-.2 .2-.3 .3c.4 .2 .8 .4 1.3 .7c-.5 .5-.8 .8-1.2 1.1c-.4-.3-.7-.6-1.1-.9c.2-.2 .3-.4 .8-.9c-.8 .3-1.2 .4-1.6 .6c-.1-.9-3.7-2.3-4.4-2.5c0-.2 0-.4 0-.6c.5-.4 1 1 1.5-.3c-.6-.4-1.2-.9-1.8-1.4c-1.6-.3-1.5 1-1.7 1.7c-.7-.1-1.2-.2-2.1-.3c.3 .6 .5 .9 .7 1.5c-.5-.1-.9-.2-1.6-.4c-.5 .5-1.1 1.1-1.8 1.7c.2 .7 .5 1.3 .7 1.9c-.5 .4-1 .7-1.5 1v1.7c-.9 .7-1.6 1.3-2.4 1.9c-.5-.2-1.2-.3-2.1-.6c.2 .6 .4 1 .6 1.6c-.5-.2-1-.3-1.7-.6c-.1 .3-.3 .7-.4 .8c-1.4 .3-2.3 .5-3.3 .8c-.5-.9-1.5-1.2-2.1-1.9c-.2 .2-.5 .5-.7 .7c.1 .2 .3 .3 .5 .5c-.7 .2-1.4 .5-2.1 .7c-.2-.1-.3-.3-.5-.4c-.1 .1-.2 .1-.3 .2c-.2 .1-.4 .3-.7 .4c-.1-.4-.2-.7-.4-1.2c-.6 .2-1.2 .3-1.8 .5c-.6-.7-1.3-1.3-1.8-1.9h-2c-.6-.7-1.4-1.5-2.1-2.3c-.2 .1-.4 .3-.5 .4c-.8-.8-1.6-1.6-2.3-2.4c0 0 .1-.1 .2-.2c-.2-.9-.4-1.7-.6-2.5c-.3 .1-.7 .3-1.1 .5c.1-.6 .2-1.1 .3-1.6c-.2-.1-.4-.2-.7-.3c-.2 .1-.6 .2-.9 .4q-.3-.3 .9-1.4c.3 .1 .5 .3 .8 .4c-.2-.5-.3-1-.5-1.4c-.8 .3-1.6 .6-2.4 .9c0-.3-.1-.7-.1-1.1c-.4-.2-.9-.5-1.3-.8c-.4 .2-.9 .4-1.7 .7c.3-.6 .4-.8 .7-1.3c-.8 .3-1.4 .5-2 .8v1c.3 .2 .7 .4 1.2 .7c-.6 .7-1.9 .7-1.7 2h-1.8c-.5 .8-.8 1.6-1.2 2.3c-.6-.1-1.2-.3-1.8-.4c-1.2 .9-2.3 1.8-3.4 2.7v1.7c-.1 0-.2 0-.3 0c-.3-.9-.5-1.7-.9-2.8c-.1 0-.3-.1-.7-.2c.2-.7 .4-1.4 .6-2.2c.4 .2 .9 .4 1.4 .7c-.2 .3-.4 .7-.5 1c.2 .2 .4 .4 .8 .8c.3-.6 .5-1.1 .8-1.7c-.6-.4-1-.7-1.6-1.2v-1.5h-.9c-.1 .5-.1 .9-.2 1.7c-.3-.3-.6-.6-.9-.9c-.1-.1-.1-.1-.2-.2c-.1-.1-.2-.2-.3-.3c-.1 .1-.2 .1-.3 .2c.1 .1 .1 .2 .2 .4c0 .1 .1 .2 .2 .4c-.4 1.2-.9 2.6 .1 3.9c-1.2 1.5 .6 3-.1 4.4c1.1 1.9 1.5 4.2 3.9 4.9c-.7 1-1.6 1.8-1.5 3c.5 .3 1 .6 1.6 1c-.4 .2-.7 .3-1 .4v.9c.9-.3 1.7-.6 2.6-.9c.6 .1 1.2 .3 1.8 .4c.5-.4 .9-.8 1.4-1.2c1.6 .6 3.2 1.2 4.8 1.8c-.8 .6-2.1 .6-2.5 1.9c.4 .2 .7 .3 1.1 .5c-.8 1.1-2.6 .7-3 2.2h-1.5c-1.8 2.4-4.2 2.4-6.2 3.6c-.5 .3-.9 .6-1.3 1c.3 .1 .6 .2 1.1 .4c-.7 .4-.9 1.3-1.8 1.3c-.2 .5-.5 1.1-.8 1.6c-.2 .4-.4 .9-.6 1.3c-.4-.2-.8-.3-1.3-.6c-1.3 .4-.7 2.2-1.7 2.9c-.7-.8 .3-1.4 .3-2.2c-1.9 .2-1 2.7-2.8 3c-.1 0-.5-.2-.9-.4c.9-1.2 2.4-2.5 2.8-3.9c-2.8 1.2-4.9 4.4-7 6.9c-.4 .5-.8 1-1.3 1.4c.1 0-.3 0-.7 0c-2.3 3.1-2.6 3.8-2.7 5.7c-.3 0-.5 0-1-.1c.6-1.6 1.1-3 1.7-4.5l-.3-.3c-1.1 1.1-2 2-3.2 3c-.2 1.5-.4 2.8-.6 4.1h-1.3c.3-1.2 .6-2.3 .9-3.6c-.2-.1-.4-.1-.7-.3c-.3 .7-.6 1.4-.9 2.1c-.5 .5-1.1 1.1-1.8 1.8c-.5-.2-1.1-.5-1.7-.9c-.2 .1-.4 .3-.6 .6c-.4 1.6-.5 2.9-.1 4.4c-.2 .2-.4 .4-.8 .7c-.1-.5-.2-.9-.3-1.4c-1.9-.5-1.6 4.5-1.3 5.4c-2 1.5-2.3 7.3-.6 9.1c-.1 .2-.1 .4-.2 .5c-.2 .6-.5 1.2-.8 1.8c-.1 .2-.2 .5-.4 .7c-1.5 2.7-3.4 5.4-3.3 8.5c-1.4 2.5-2.2 5.4-5.5 7c1-1.5 3.1-4.8 2.4-6.7c-.4 .6-.7 1.1-1.1 1.7c-.1-.6-.2-1-.3-1.6c-.3 .2-.4 .4-.6 .5c-.1-.1-.2-.1-.3-.2c-.2-.1-.3-.2-.6-.4c-1 1-2 2-3 3c-.1 0-.2-.1-.3-.1c.7-1.8 3.9-6 3.8-7.9c-2.5 1.1-4 4.7-5 7.5c-1.1-1.8-.6-5.7 2-6.3c.4-.8 .8-1.6 1.2-2.5c-.3-.3-.5-.6-.9-1c-.5 2.7-3.8 6-5.2 8.5c-.9-1.7 1.4-5.2 2.2-6.7c-.4-.1-.6-.1-.7-.1c-1.1 1-.8 3-2.9 3.5c.7-1.3 1.3-2.3 2-3.4c-.5 .1-1.1 .3-2.1 .5zm-25.3-81.4H122v-1c.6 .3 1 .4 1.4 .6c0 .1-.1 .2-.1 .3zm21.6-69.3c.1 0 .2 .1 .4 .1c1.5 .3 3.2 0 4.5 .3c-.4 .1-.7 .2-1.1 .2c-.7 1-1.5 2-2.2 3c-.1 .2-.2 .3-.3 .5c.7 1 1.5 2 2.4 3.3c-1.5-.2-1.9-1.5-2.9-2v2.6c.3 .6 .7 1.3 1.1 2.2h2.1c0 .1 0 .3 .1 .4c-.9 .3-1.9 .6-2.9 .8c.2 .6 .4 1.2 .6 1.9c-.3 .1-.5 .2-.7 .3c-.8-.7-.6-3.8-.7-5c-.7-.4-1.1-.7-1.6-1v-2.1c-.4-.1-.6-.2-.9-.3c.8-.4 1.6-.8 2.4-1.2c-.8-1.4 .5-2.6-.2-4zm6.4 .5c0-.1 0-.2 0-.3c.8 0 1.5-.1 2.2-.1c.3-.3 .2-.5-.3-.8c.3-.1 .5-.1 .8-.2c.2 .4 .3 .7 .5 1c.6-.2 1.1-.3 2-.6c-.6 1-1 1.6-1.4 2.2c1.2 1.1 .8-1.2 1.7-.7c.5-.5 .9-1.1 1.4-1.6c.1 .1 .2 .2 .2 .3c.6-.2 1.1-.4 1.7-.6c.2 .3 .3 .6 .5 .9c.8-2.7 5.7-1 7.5-.9c-.2-.3-.3-.5-.4-.8c.6-.1 1-.5 1-1.2c.3 .3 .6 .5 .9 .7c-.3 .5-.4 .8-.6 1.1c.2 .3 .3 .6 .6 1c-.2 .2-.3 .5-.7 .9c2-.4 2.9 1.4 4.5 2.1c-1.5 .6-2.9 1.1-4.6 1.8c-.6-.4-1.3-.9-2.3-1.5c.2 .6 .3 .9 .5 1.4c-.8 0-1.6 .4-2.2-.5c-.8 .5-1.5 1-2.3 1.5c-.2-.1-.4-.3-.8-.5c-.2 .3-.4 .5-.6 .9c-1.1 .5-2.3 1.5-4 1c-.1-.2-.2-.5-.3-.8h-2.1c.1 .1 .2 .1 .2 .2c-.4 .1-.8 .3-1.3 .5c-1.2-.5-1.7-1.4-1.8-2.5c-.6 .8-1 1.3-1.3 1.8c-.7-.4-1.2-.7-1.8-1.1v-2.8h2.2c.3-.6 .6-1 .9-1.6c.5 .1 1.1 .2 1.6 .4c0-.2 0-.3 0-.7c-.8-.1-1.6-.1-2.4-.2zm10.1-3.9c0-.1 0-.2 0-.2h1.7c.1 .1 .1 .1 .2 .2c-.3 .1-.6 .2-1.1 .3c0 0-.5-.2-.8-.3zm-5 11.3c-.6 .4-.9 .6-1.2 .9c-.6-.2-1.1-.6-1-1.6c.7 .2 1.3 .4 2.2 .7zm-5 2.9c-.9 .6-1.6 1-2.3 1.4c.4-.4 .8-.8 1.3-1.4c0 0 .4 0 1 0zm14.1 25.1c1-.4 1.7-.2 2.2 .9c-.8-.3-1.4-.6-2.2-.9zm5-12.3c.9-.7 1.5-1.2 2.3-1.8c.6 .4 1.3 .9 1.9 1.3c1 .2 1.9 .2 2.8-.1c1.1-.3 2-1.1 2.8-2.2h1.1c0 3.3 .1 1.2 1.8 2.6c-.3 .1-.6 .3-1 .5c-.1 0-.5-.2-1-.4v2.8c.2 .1 .6 .3 .8 .4c-.2 .2-.4 .4-.7 .5c-2.4 1.7-5.4 1.1-8.2 1.2c-1.1-.7-2.1-1.4-3.4-2.1c.5-.2 .8-.3 1.1-.4c-.2-.8-.3-1.7-.5-2.3zm6.5-8.1h.7v2.3c-.4-.7-1.3-1.3-.7-2.3zm-1.4-14.4c.5 .4 1 .7 1.5 1.1c-1.3 .4-1.7 .2-1.5-1.1zm26.2-23.2c1.3-.7 1.6-1.9 2.8-1.9c-.6 .6-1.2 1.1-2 1.9h-.3v1.6c-.5-.3-.9-.5-1.5-.8c.5-.3 .8-.5 1.2-.8h-.1zm7.1 5.9c3.1-1.5 6.2-3.9 9-6.5c.3-.2 .6-.5 .8-.7c.8-.7 1.5-1.4 2.3-2.2c.8-.7 1.5-1.5 2.2-2.2c.8-.8 1.6-1.6 2.3-2.4c-.7 2-1.5 3.9-2.4 5.9c-.4 .9-.8 1.8-1.3 2.7c-.6 1.2-1.1 2.3-1.7 3.4c-2 3.7-4.2 7.3-6.6 10.6c-1.2-.9-2.4-1.7-3.6-2.5v1c-1.2-.3-1.7-.9-2-1.9c.6 .1 1.1 .2 1.5 .3c-.3-.4-.6-.8-1-1.4c1-.1 1.6 .6 2.6 1c-.6-1.3-1.6-2.5-3.3-2c-.3 .3-.7 .7-1.2 1.1c-.5-.7-1.4-1-1.4-1.9c.8-.4 1 1.4 2 .5c-.1-1.2-1.4-1.5-1.9-2.5c.5-.1 .9-.1 1.4-.2c0-.3 0-.6 .1-1.1c-.5-.5-1-1-1.7-1.7c.5-.3 .9-.5 1.2-.7c-.7-.5-1.4-1-2.2-1.6c1.5-1.8 2.9-3.3 4-5.3c0 0 .3 0 .6-.1c1.1-.7 2-1.4 2.9-2.1c1.4-1.2 2.7-2.4 3.8-3.9c.3-.3 .5-.6 .8-1c.3-.4 .7-.9 1.1-1.3c1.4-1.5 3.1-3 4.1-4.7c-.3 .8-1.6 3-3.3 5.8c-.5 .9-1.1 1.8-1.6 2.7c-.8 1.3-1.6 2.7-2.4 4.1c-3 5.1-5.6 9.9-5.1 10.6zm-4.6 3c-.1 .4-.2 .6-.3 .8c-.6-.6-1.2-1.2-1.8-1.8c1.2-.5 1.3 .8 2.1 1zm-3.1-3.3c.4-.1 .7-.2 1-.3c.1-.4 .1-.8 .2-1.4c.7 1.1 1.2 2 1.9 3.1c-1.1-.5-2-.9-3.1-1.4zm3.9 32.4v1.7c-.5-.6-.7-1-1.1-1.5c.5-.1 .7-.1 1.1-.2zm41.9 9.1c0-.9 .4-1.3 1.3-1.4c-.1 .5-.3 1-.4 1.5c-.4-.1-.6-.1-.9-.2zm24.9-94.8c.3-.3 .5-.5 .7-.7c.6 .6 2.2 5.9 2.9 7.1c.9 1.7 2.2 3.6 2.3 5.2h1c1.8 2.1 3.2 4 4.7 6.4c-.1 .1-.3 .4-.5 .7c.6 .1 1.2 .1 1.8 .2c-.1 .8-.4 1.6-1 2.2h2v2.8c-.2 .3-.6 .8-1.1 1.5c1.4 .1 4 1.7 5.1 1.6c-.1 .4-.2 .8-.3 1.1c.5 1.1 1 2.1 1.6 3.2c0 0 .2 0 .6 0v-1.4c1 .1 0 1.5 1 1.6c-.4 .2-.7 .3-1.2 .6c.7 .8 1.4 1.6 2.1 2.4c0 1-.9 1-1.4 1.4c0 .2-.1 .4-.1 .6c0 1.3 .8 2.2 1.8 3.2c.1-.9 .1-1.6 .2-2.2c.2 .1 .6 .3 1 .6c-.2 .3-.4 .5-.6 .8c.4 .4 .9 .9 1.4 1.3v1.5c-.3 .3-.6 .7-1 1.2c.2 .3 .4 .5 .5 .7c-.5 .8-1 1.5-1.4 2.3c.4 .9 .3 1.9 1.8 2c-.5 1.1-1 2-1.5 3.1c-.5 .3-1.3 .8-2.2 1.3c-.8-1-1.6-1.8-2.5-2.8c-.2 .5-.4 1-.6 1.5H288c-.6-.7-1.2-1.5-1.8-2.3c-.1 .1-.2 .1-.3 .2c.1 .4 .3 .7 .4 1.1q-1.1 .1-2.1-.8c-.2 .4-.5 .8-.9 1.4c-.7-.1-1.3 .2-1.8 .7c.3-.9 .5-1.4 .7-2c-1.1 .3-1.9 .5-2.9 .7l-.8-.8c-.5 .8-.1 1.4 1.1 1.8c-.1 .1-.3 .4-.6 .6c-.2-.1-.5-.3-.8-.5c-.2 .1-.5 .3-.7 .5c-.6-.6-1.1-1.2-1.8-1.9c-.4 .4-.8 .7-1.3 1.1c-.3-.2-.5-.4-.7-.5c0 0-.1-.1-.1-.1c-.1 .3-.3 .6-.5 1.1c-.7-.6-1.3-1.1-2.3-1.9c.5 1.2 .8 1.9 1.2 2.7h-1.1c-.3-.4-.5-.9-.8-1.3h-2.8c.2 .3 .3 .5 .4 .7c-.7 .4-1.3 .3-1.8-.5c-.4 .3-.6 .5-1 .8c-.8-.8-1.7-.8-2.5 0c-.3-.3-.6-.5-.8-.8c2.5-4.4 4.4-9.2 6-14.1c3.7-11.9 4.9-24.8 4.5-36.8zm20.2 53.3c-.5 .2-.9 .5-1.7 .9c-.1-.3-.3-.7-.4-1.1c.5-.2 1.3 0 2.1 .2zm-10.6 22.2c-.8 .1-1.2 .1-1.9 .2c0-.4 .1-.7 .1-1.2c.5 .3 .8 .5 1.4 .8c.7-.6 1.3-1.4 2.5-.8c-1 .3-1.7 .6-2.5 .8c.1 .1 .2 .1 .3 .2zM265 161.5c-1.1 .5-2.3 0-2.9-1.2c.5 .2 .9 .4 1.4 .6c.2-.2 .4-.3 .6-.5c.3 .3 .5 .7 .9 1.1zm41 33c.2 0 .5 0 .7 0c1.2 .7 1.9 2.2 2.4 3.7c.2 .6 .4 1.1 .5 1.6c-.3-.2-.6-.5-.8-.7c-1.8-1.4-3.8-2.7-5.8-3.9c-.7-.4-1.4-.9-2.1-1.3c-.1-.1-.2-.1-.3-.2h2.5c.1-.5 .2-.9 .3-1.4h1.5c-.3 .6-.5 1.1-.7 1.6c.6 .4 1.2 .7 1.9 .7zM278.7 202c1-.4 1.8-1 2.1-2.1c2.7 .3 4.2 .5 6.7-.6c.1 .1 .2 .1 .3 .2c.6 .3 1.2 .5 2 .4q-.6 1.1 0 2.4c-.6-.2-1.1-.4-1.8-.6c-.1 .3-.2 .7-.3 1.2c0 0 .1 .1 .1 .1c-.3 .1-.6 .2-.9 .3v1.3c.4 0 .8 0 1.3 .1c0-.5 .1-.9 .1-1.3c.6 .2 1.2 .3 1.9 .5c-2.3 2.7-5.4 2.2-8.3 2.2c0 0 0 0 0 0c-1.3-1.1-3.4-1.2-3.9-3.3c.9 .7 1.8 1.3 3 2.1c.1-.6 .2-1 .3-1.6c-.8-.4-1.6-.9-2.4-1.3zm2.8-8.7c.4-1.4 1.4-1.3 2.8-.9c-.7 .7-1.1 1.2-1.7 1.9c-.4-.3-.7-.6-1.1-.9zm-6.7-2c-.6 1.1-1.5 .8-2.7 .7c1.1-.5 1.7-1.3 2.7-.7zM309.9 211c-.2 .3-.4 .7-.7 1.1c-.5-.4-.8-.7-1.3-1.1h2zm-12 2.3v1.7c-.5-.6-.7-1-1.1-1.5c.5-.1 .8-.1 1.1-.2zm27.8-8.7h-1.3c.5-.5 .8-.9 1.3-1.4v1.4zm.5 1.1v3c-.6-.9-1-1.5-1.5-2.2c.5-.3 .9-.5 1.5-.8zm11.1 85.2v2.9c-.3 .2-.6 .5-.8 .7c-.4-1.1 0-2.1 .8-3.5zm-.8 5.2c-.2 1.3-.5 2.5-.8 4.1c-.3-.6-.4-.9-.6-1.4c.1-.7 .3-1.7 .5-2.8h.9zm-7.7 20.4c0 .2-.1 .4-.1 .7c-.9 .1-1.2-.4-1.5-1.5c.7 .4 1.1 .6 1.6 .8zM318.5 332c-.2 1-.4 1.7-.5 2.5h-.5c-.2-1.3 0-1.8 1.1-2.5zm-3.7-1c-.2 .5-.5 1-.9 1.9v-4.7c.4 1.2 .6 1.9 .9 2.8zm-6.4 6.5v2.4c-.9-.8-.1-1.6 0-2.4zm-2.9-1.1v2h-.7c-.4-.8-.1-1.4 .7-2zM298.5 402c.2-.2 .4-.4 .8-.8c.9 1.5 1.8 3 2.7 4.6c-.1 .1-.3 .2-.4 .3c-1-1.4-2-2.8-3.1-4.1zm1.8 12.9c-.1-.1-.1-.2-.2-.2c-1.3-1.4-1.5-3.1-2.3-4.7c1.2 .9 2 2.4 2.4 4.5c0 .2 .1 .3 .1 .5zm-12.6-2c.6 .4 .9 1 .6 1.8h-2.3c0-1.4 1.2-1.2 1.7-1.8zm-1.2-51.1q1.1 1.1 1.2 2c-.4-.5-1.3-.7-1.2-2zm.7 63.5c.4 1 .7 1.8 1.1 2.9c-.1 .1-.4 .3-.8 .6c.1-1.2-1-2.1-.3-3.5zm1-4.5c.4 1.1 .8 2 1.2 3c-.3 0-.4 .1-.6 .1c-.5-.9-1.1-1.7-.6-3.1zm4 14.2c.5-.6 1-1.3 1.6-1.9h1.5c-.3 .6-.5 1.1-.7 1.6c-.2 .1-.4 .2-.6 .3c-4.2 2.4-4.1 7.4-2.7 11.6c.6 1.8 1.4 3.5 2.2 4.8c-2.6-.9-2.9-3.2-4-4.8c0-.7 0-1.3-.1-1.9c0-3.8 .6-6.6 2.8-9.7zm-2.8-25.2c0-.9 .4-1.3 1.3-1.2c-.6 .2 .1 1.6-1.3 1.2zm.9 3.7v3.1h-.8v-2.4c.3-.2 .6-.5 .8-.7zm5.6 10.8h-1.5c-.5-2.2-2.2-4.2-1.4-7c.7 2.5 1.5 4.7 2.9 7zm-1.4-106.7c.2 .9 .3 1.8-.7 2.5c-.2-.9-.3-1.8 .7-2.5zm.9 114.2c.5-.1 .7-.2 1.1-.2v1.7c-.4-.6-.7-1-1.1-1.5zm.2 15.5c-2.5 .7-1.9-4.6-1.1-5.7c.4 1.9 .7 3.7 1.1 5.7zm-2.2 4.3c.4 .2 .7 .4 1.1 .7c0 0 .1 0 .1 0c.1 .1 .3 .2 .4 .3c-.2 0-.4 .1-.6 .1c-.4 .1-.8 .1-1.2 .2c.1-.5 .1-.7 .2-1.2zm1.4-.7c.1 0 .3 .1 .4 .1c.7 .1 1.4 .3 2.2 .5v1.2c-.4 0-.7 0-.9 .1c-.5-.5-1-1-1.5-1.6c-.1-.1-.2-.2-.3-.3zm.7-137.7c-.5-.8-.9-1.7-1.2-2.6c1.1 .7 1.6 1.7 2.1 2.8c.2 .6 .4 1.1 .6 1.7c-.5-.6-1-1.3-1.4-1.9zm-2.5 10c-.4 1.2-.7 2-1.1 3.1c-.2-1.4-.5-2.2 1.1-3.1zm-1.5 8.5c-.3-.9-1.1-1.4-.5-2.5c.3 .9 1.1 1.4 .5 2.5zm-6.7-6.4c.2 1 .5 1.8 .8 3c-.8-.5-1.4-.9-2.1-1.4c.4-.5 .9-1 1.4-1.6zm-1-28.7c.3 .3 .8 .8 1.2 1.2c-.6 0-.9-.2-1.2-1.2zm-2.5-2.5c.6 1.3 1.5 2.6 1.2 4.5c-1.1-1.1-1.1-2.9-1.2-4.5zm.7 21.1c-.1 .4-.2 .8-.3 1.2c-.1 .3-.2 .6-.3 .9c-.1-.1-.2-.1-.3-.2c.2-.5 .3-1 .4-1.5c.1-.7 .2-1.4 .3-2.2c.3 .6 .3 1.2 .2 1.9zm-3.5-18.8c-.2-.7-.5-1.5-.8-2.4c1.4 .6 .9 1.5 .8 2.4zm-2.7-8.2v1.7c-.4-.6-.7-1-1.1-1.5c.5-.1 .7-.2 1.1-.2zm-4.8 4q1.6 1 2 2.6c-.8-1.1-1.8-1.4-2-2.6zm-.2 18.1c-.3 0-.4-.1-.6-.1c-.6-.9 .3-1.5 .5-2.3h.6c.4 .8 .2 1.6-.5 2.4zm1.4-20.7c1.1 0 1.3 1 1.7 1.7c-.6-.6-1.1-1.1-1.7-1.7zm-3.8 19.8c-.5-1.1-.2-3.8-.2-4.8c.7 1.6 1.2 3.2 .2 4.8zm-3.6-7.2v2.8c-.6-1.2-.3-2 0-2.8zm-9.4 9.2c-.1 .1-.4 .3-.8 .6c-.1-.2-.1-.3-.2-.4c-.1-.3-.2-.5-.3-.8c-.2 0-.5 .1-1.1 .2c.4 .5 .7 .9 1.1 1.3c.3 .3 .6 .7 .9 1.1c-.5-.2-.9-.3-1.2-.5c-.2-.1-.4-.2-.7-.3c-.2 .1-.3 .3-.5 .4c-.4-.5-.9-1-1.2-1.3h-3.2c-.3 .3-.6 .6-.9 .9c-.7-.9-1.5-1.8-2.2-2.6c-.1 .2-.3 .3-.4 .5c-.7-.4-1.4-.8-2.2-1.2c-.4 1-.7 1.9-1.1 2.9h1.8c.2-.3 .5-.8 .9-1.4c-.1 1.2 1.8 .9 1.6 2.5c-.5-.4-.8-.7-1.2-1c-.1 .3-.2 .6-.4 1c-.3-.1-.7-.3-1.1-.4c-.1 0-.2 .2-.5 .4c-.8-.7-2.2-.3-2.9-1.8c-.1 .8-.2 1.2-.3 1.9c-.7-.4-1.3-.8-2-1.2c-.7 1 .3 1.2 .6 1.7c-.4 .3-.8 .7-1.2 1c-.3 .2-.6 .5-.9 .7c-1.4-.8-6.1-.4-7.7-.4c-.1-.3-.2-.6-.4-1c-.5 .2-1 .4-1.5 .6c-.1-.1-.1-.2-.2-.3c.4-.2 .8-.4 1.5-.8c-1.6-.7-1.6 .5-3.1 .6c-.2-.3-.3-.7-.5-1h-1c-.2 .3-.4 .7-.6 1c-1.1-.4-1.7-2.2-.4-2.8c.3 .3 .7 .6 1.1 1c.3-.2 .5-.4 .8-.6c.5 .6 1 .6 1.5 0c.2 .2 .4 .3 .5 .4c1.4 0 1-1.2 1.4-2c1.8 .9 3.4 1.8 5.5 1.5v-1.9c.8 .2 1.4 .4 2.1 .6c.2-.4 .4-.8 .6-1.1c1.2 .2 1.2 1 1.2 1.8c0 0 0 0 0 0c.7 .2 1.4 .4 2.2 .6c.1-.3 .1-.5 .2-.7c-.4-.2-.7-.3-.9-.4c-.5-2 1.9-2.1 2.1-3.8c.4 .6 .7 1 1 1.6h1.5c.2-.2 .4-.6 .7-1.1c1.3 .2 2.4 .3 3.4 .5c.3 .5 .5 .9 .7 1.4c-.4 .3-.9 .7-1.7 1.3c.7 .2 1.1 .3 1.4 .4c.4-.5 .7-.8 1.3-1.5c.2-.8 .4-2 .7-3.2c.7-.2 1.4-.4 2.1-.6c.1 .2 .1 .3 .3 .7c-.6 .2-1.2 .5-1.7 1c.3 1 .5 1.9 .8 2.7c.3-.2 .5-.4 .8-.6c.4 .6 .8 1.1 1.1 1.6c.1 0 .2-.1 .3-.1c-.1-.5-.2-1-.2-1.4c.3-.4 .7-.8 1.3-1.5c.5-.1 .9 .2 1.2 .6c.3 .3 .5 .6 .8 .9c1.2-1.4 1.9 .3 3.3 1c-.3-1-.5-1.4-.5-1.5c.2-.4 .4-.7 .6-1.2c.5 .4 .8 .7 1.1 1c-.3 .4-.7 .8-1 1.1c.7 .6 1.4 1.2 1.8 1.5c0 0-.1-.4-.2-1c.6 .3 1 .5 1.4 .7c-.2 .8-.4 1.4-.5 1.8c.5 .5 .8 .8 1.4 1.3h-2.3c-.2-.2-.5-.6-.8-1c-.4 .2-.7 .4-.8 .5c-1.3-.2-2.5-.3-3.8-.5c.1-.3 .2-.7 .4-1.2c-.1-.1-.4-.2-.7-.4zm-17.9-3.7v-1.8c.4 .1 .7 .2 1.2 .3c-.4 .5-.7 .9-1.2 1.5zm18.3-29.4c1.7 .3 3.2 .9 4.5 2c.2 .2 .4 .4 .6 .6c-.3-.1-.6-.2-.9-.2c-1.6-.5-3-1.3-4.3-2.3zm3.1 9.6c-.1-.3-.3-.6-.4-.9c-.1-.2-.1-.3-.2-.5c-.1-.2-.2-.4-.3-.7c-1-.7-1.6-1.6-1.9-3.1c1.2 1 1.9 1.8 2.1 3.1c.1 0 .1 .1 .2 .1c.4 .2 .6 .5 .7 .8c.1 .3 0 .7-.2 1.1zM220 312.6v1.7c-.4-.1-.6-.1-1.1-.2c.4-.5 .7-.9 1.1-1.5zm-12.1-44c-.1 .3-.1 .6-.2 .9c-.1 .3-.2 .7-.3 1c-.3-.3-.6-.6-.9-.9c.2-.2 .3-.3 .5-.5c.2-.2 .4-.4 .6-.7c.1 0 .2 .1 .3 .1zm-6.7-4.9c.2 .1 .3 .1 .5 .2c0 .4 .1 .7 .3 .9c.4 .9 1.2 1.5 1.3 2.6c.3 .1 .6 .2 .9 .3c-.1 .3-.2 .6-.3 .9c-1.2-.6-1.7-1.5-2.4-2.1c-.5-1.2-.9-2.2-1.4-3.4c.1-.1 .3-.3 .4-.4c.3-.3 .6-.7 1-1.1c.5 .9-.3 1.2-.6 1.6c0 .1-.1 .1-.1 .2c.1 0 .2 .1 .3 .1zm9.3 50.4h-4.3c0-.2 0-.4-.1-.6c1-.2 2-.4 3.3-.7c.3 .3 .7 .8 1.1 1.3zm-11.4 .7c.4 .2 .8 .4 1.1 .5c.2 .4 .4 .8 .7 1.4c-.6-.2-.9-.4-1.2-.5c-.4 .1-.8 .2-1.5 .4c.4-.9 .6-1.4 .9-1.9zm-1.5-27.5V286c.9-.6 1.9-1.3 3-2c.5-.4 1.1-.7 1.7-1.1c0 1.1-.7 1.4-1.3 1.7c-.3 .2-.7 .4-.8 .7c-1.2 .2-1.6 1.4-2.6 2zm2.9 2.7c.4-1.2 .8-2.5 1.6-3.5c.1-.1 .2-.2 .2-.3c.4-.5 .8-.9 1.4-1.2c-.2 .5-.5 1-.7 1.4c-.2 .3-.4 .7-.5 1c-.5 .9-1.1 1.8-1.9 2.6zm3.4 23.7c.1 0 .1 0 .2 0c.2 0 .3 .1 .4 .1c.1 .8 .1 1.1-.2 1.4c-.2 .2-.6 .3-1.2 .5c.3-.7 .5-1.3 .8-1.9zM197 288.5c-.4 .9-.9 1.8-1.5 3.1c0 0 0 0 0 0c-.4 1.5-.7 2.7-1.1 4.1c-.4-1.7-.2-2.7 1.1-4.5c0-1.3 .4-2.1 1.5-2.7zm-3.1 8.4c-.3 1.3-.6 2.5-.9 3.6c-.3-.3-.7-.7-1.1-1.1c.2-.2 .7-.7 1.1-1.1c.1-.4 .1-.9 .2-1.3h.7zm-7.7-2c-.2 .3-.5 .5-.8 .9c0-.7 .2-1.1 .4-1.4c.3-.4 .7-.7 1-1.2c.1 .9-.2 1.3-.6 1.8zm-1.8 3v1.6c-.2 .2-.5 .5-.7 .7c-.3-1 .3-1.5 .7-2.3zm-5.6 21c-.5-1.5-1.1-3-1.7-4.6c.3-.1 .6-.2 1.1-.3c-.5 1.9 1.1 3.2 .6 4.9zm-4-.5c-.1 1.2 0 2.3 .2 3.4c.2 1.3 .6 2.6 1 4c.2 .7 .4 1.4 .5 2.1c-.5-.7-.9-1.4-1.1-2.1c-.5-1.2-.7-2.5-1-3.9c-.2-1.1-.4-2.3-.7-3.4c.4 0 .6 0 1 0zm0-11.1c.2-.5 .5-.9 .7-1.4c.6 .4 .3 2.7 .3 3.3c-.5-.9-.7-1.4-1-1.9zm-1.9 34c-.7 1.2-.7 1.1-1.7 1.6q.8-1.9 1.7-1.6zm-1.6-36c.3-.5 .5-.9 .9-1.6c.1 .7 .2 1.2 .2 1.7c-.5-.1-.7-.1-1.2-.2zm.2 56.3c-.1 0-.3 0-.4 0v-3.4c1 1 .4 1.9 .4 3.4zm-5.6 27c1.1-1.3 2.5-2.4 3.7-2.4l-3.3 3.3c-.6 .6-1.3 1.3-1.9 1.9c.1-.8 .7-1.9 1.5-2.9zm-.6-4.3c.5-.5 .9-.9 1.4-1.3c0 .8-.4 1.3-1.4 1.3zm3.6-68c.1-.3 .2-.5 .4-.8c.1 .1 .2 .1 .3 .2c-.2 1.2-.4 2.4-.7 4c-.5-1.3-.1-2.4 0-3.4zm-7.7 29.9c.4 1.3 .1 2.4-.6 3.6c-.3-1.5-.1-2.5 .6-3.6zm-1.1-2.1c-.1-.1-.1-.3-.2-.5c.3-.2 .6-.4 1-.7v2.2s-.1 .1-.1 .1c-.2-.4-.4-.8-.6-1.2zm-3.7-8.5c-.1 1.2-.5 1.6-1.7 1.9c0 0-.1 0-.2 0c.6-.9 1.2-1.6 1.9-2.6c0 .3 0 .5 0 .7zm.6 1.7c.1 .7 .1 1.1 .1 1.4c-.3 .3-.5 .5-.8 .8c-.4-.8-.1-1.5 .7-2.2zm-1.5 79.2c-.2 1.7-2.1 2.2-2.5 3.7c0 0 0 .1 0 .1c-.2-.1-.3-.1-.5-.2c-.1-.1-.2-.1-.4-.2c.9-1.5 2.2-2.4 3.4-3.5zm-.5-12.7c.3-.5 .5-.9 .9-1.6c.1 .7 .2 1.2 .2 1.7c-.5-.1-.7-.1-1.2-.2zm.1-50.7c.2-1.4 .8-2.3 2.1-3.2c-.3 1.6-.9 2.4-2.1 3.2zm3.5 5c-.8 .6-1.1 .8-1.5 1.1c0-.4-.1-.8-.1-1.5c.4 .1 .7 .2 1.6 .4zm-8.4-20v2.2c-.1 0-.1 .1-.2 .1c-.1-.3-.3-.7-.5-1.3c0 0 0 0 0-.1c0-.1 .1-.2 .2-.3c.1-.2 .3-.4 .5-.7zm-.7 102.8c-.5-1.3 .3-1.8 1.6-2.6c-.7 1.1-1.1 1.8-1.6 2.6zm1.4-5v-1.5c.4-.2 .8-.4 1.4-.7c0 1.1-.8 1.4-1.4 2.2zm3.8 8.1c-1 .5-1.9 1.2-3.1 1.5c.2-.4 .4-.7 .7-1c.9-1.1 2-2 2.9-3c.5 .7 .9 1.3 1.2 1.8c-.6 .2-1.2 .4-1.7 .7zm2.3 18.1c-.4-.1-.6-.1-1.1-.2c.4-.5 .7-.9 1.1-1.5v1.7zm2.9-19.9h-1.7c1.6-.7 2.5-1.9 4-2.3c-.8 .8-1.5 1.5-2.3 2.3zm1.6 11.3c-.4-1.2 .7-1.4 1.2-2.5c.2 1.5-.7 1.8-1.2 2.5zm-.8-18.9c-1.3 1.1-2.5 2-3.4 2.9c-.9 .2-1.7 .4-2.6 .6c.6-.9 1.3-1.8 2.2-2.6c2.8-2.6 6.8-4.5 9.2-7.5c-.4 2.3-3 4.6-5.4 6.6zm5.7 1.5c-.9 1.5-1.7 2.5-2.9 2.9l2.9-2.9zm-1.4 3.5c.5-.5 .9-1 1.7-1.9q-.5 1.5-1.7 1.9zm7.3 44.5c-1-2.1-.4-5.3-.4-7.5c.1 0 .3 0 .4 0v7.5zM167.8 435c-.7-1.2 1-1.4 .8-2.3c2.2-2 3.1-4.9 4.7-7.5c.5 3.3-3.4 7.6-5.4 9.8zm7-73.2c-.1 .1-.2 .2-.4 .3v-1.5c.2-.1 .4-.2 .6-.3c.3-.1 .7-.3 1.1-.5c-.5 1.1-.7 1.4-1.3 2zm1.4 6.1c0-.9 .8-1.2 1.5-1.6c-.2 .6-.4 1.1-.7 1.9c-.4-.1-.6-.2-.8-.3zm2.1 113.2c.9 .9-.3 1.5-.3 2.6c-.7-1.2 .1-1.8 .3-2.6zm.8 6.5c-.2 .2-.5 .5-.7 .7c-.3-1 .3-1.5 .7-2.3v1.6zm2.2-104.9c-.4-1-.2-1.7 .9-2.2c-.3 .8-.6 1.4-.9 2.2zm2.2-9.5c.4-.8 1-1 1.8-.7c-.4 .8-1 1-1.8 .7zm3.6 1.1c-.1 0-.3 0-.4 .1c-.1-.4-.2-.7-.4-1.2c.5-.4 1-.7 1.4-1.1c.3 .8 .1 1.5-.6 2.2zm6.3 68.2c-.4-1-.4-1.8 .5-2.3c.9 1-.5 1.6-.5 2.3zm-2.8-7c0 .1-.1 .3-.1 .4c0 0-.1-.1-.1-.1c-.3-.2-.5-.4-.5-.5c.4-5.5 3-9.8 6.1-13.7c-2.3 4.7-4 8.9-5.4 13.9zm2.8-36.2c.4 1.5-.3 1.7-.8 2.1c-.4-1 .6-1 .8-2.1zm3.1 22.1c-.2-1.5 .7-1.8 1.2-2.5c.4 1.2-.7 1.4-1.2 2.5zm.6-33.9c.1-.5 .3-.9 .6-1.3c.3-.4 .8-.6 1.3-.7c-.5 .5-1.2 1.2-1.7 1.7c-.1 .1-.1 .1-.2 .2zm1.3 75.4c0 .1-.1 .2-.1 .3h-.3c0-.2 0-.4 0-.6c0-1.4 .4-2.4 .9-3.8c.2 .1 .3 .2 .5 .3c-.3 1.3-.7 2.5-1 3.8zm.3-66.3c.4-.8 .8-1.5 1.2-2.2c.1 0 .2 .1 .3 .1c-.1 .4-.4 2.6-1.5 2.1zM200 480c.2-.9 .3-1.7 1.3-2.4c0 1.1-.5 1.9-1.3 2.4zm4-33.6q-.3-1 .9-2.1c-.4 1-.6 1.5-.9 2.1zm2 31.7c-.3 0-.5 0-.9 0c.2-.8 .4-1.5 .7-2.3c.1 0 .2 0 .3 0v2.3zm1.4-29.3h-.2v-2.4h.2v2.4zm1.1 10c.2-.8 .4-1.5 .6-2.4c.3 .3 .4 .4 .7 .7c-.2 .7-.6 1.3-1.3 1.7zm2.1 20.1c-.2-.6-.3-.9-.4-1.3c-.2 .1-.3 .2-.5 .3c.2-1.2 .5-2.4 .8-3.9c.4 .8 .6 1.2 .7 1.4c-.2 1-.4 2-.6 3.4zm1.4-67.5h1.2c-.6 .8-1.1 1.6-1.6 2.4c-.8-1 .3-1.7 .4-2.4zm2.7 65.6c-.8 .8-1.4 1.4-2.1 2.1c-.2-.2-.4-.4-.8-.7c.4-.4 .7-.7 1-1v-.6c.6-.6 1.1-1 1.6-1.6c.2 .1 .4 .4 .6 .6c-.2 .5-.3 1-.3 1.2zm-.6-21q-.4-1.4 1.2-2c-.5 .8-.8 1.4-1.2 2zm2.9-39.6c.2-1.5 .9-1.9 1.8-2.3c.3 .8-1.4 1.9-1.8 2.3zm4.9-19c0 0 0 .1 0 .1c-.2 .4-.5 .8-.6 1.2c-.2-.5-.2-.7-.1-1.1c0 0 0-.1 0-.1c.1-.2 .3-.6 .6-1.1c.2 .3 .2 .6 .2 .9zm2.7 49.5c-.7-1.4 .7-2.2 .9-3.8c.7 1.9-.8 2.6-.9 3.8zm.9 46.1c.6-.5 1-.7 1.5-1.1c.1 .5 .1 .7 .2 1.1h-1.7zm.8-78.5c-.1-1.3 .4-1.6 1.6-1.9c-.6 .7-1 1.2-1.6 1.9zm1.4-23.5v-1.8c.4 .1 .7 .1 1.2 .3c-.4 .5-.7 .9-1.2 1.5zm3.9 20.3c.3-.7 .5-1.5 .5-2.3c.5 .7 .3 1.5 .4 2.3h-.9zm-.1-11.8c.3-.6 .4-1.5 1.4-2.1c0 .3 .1 .6 .1 .9c-.5 .4-1 .8-1.5 1.1zM244 460.3c-1 .1-2.1-2.4-1.7-3.1c.5 .4 1.1 .8 1.7 1.2v1.9zm1.8-20.5c-.6-.6-.8-1.2-1-2c-.1-.5-.2-.9-.3-1.5c.3 .3 .6 .6 .8 1c.4 .7 .6 1.6 .5 2.4zm.6 18.6c-.9-1.6-.4-4.4-.4-6.1c.1 0 .3 0 .4 0v6.1zm2 7c-.6-.2-.8-.3-.9-.3c.2-.9 .4-1.8 .6-2.6c.6 .3 .3 2.5 .3 3zm-.2-30c-.1-.3-.2-.5-.4-.8c.4-.1 .6-.1 .9-.2c.1 .2 .2 .4 .3 .6c.2 .4 .3 .8 .5 1.2c-.4 .1-.6 .1-.9 .2c-.1-.3-.3-.7-.4-1zm2.8 57c-.7 .2-.8 0-1.6-1.9c.9 .5 1 .5 1.7 1.4c.1 .1 .2 .2 .3 .4c-.1 0-.2 .1-.3 .1zm2-20.7c-.4-1-.2-1.9-.3-2.7c0-.1 0-.2 0-.3h1c-.2 .9-.4 1.8-.7 3zm-.4-22.4c-.7-2 .7-3.5 .1-5c.5-.3 .8-.5 1.5-1c-.6 2.1-1 3.8-1.6 6zm-.5-11.4c.3-.3 .6-.5 1.1-.9v1.9c-.4-.4-.7-.7-1.1-1.1zm1.7-42.6v-1.8c.4 .1 .7 .2 1.2 .3c-.4 .5-.7 .9-1.2 1.5zm1.2 56.3c.3-.5 .5-.9 .9-1.6c.1 .7 .2 1.2 .2 1.7c-.5-.1-.7-.1-1.2-.2zm-.8-2.5c.7-3.3 1.6-5.8 2.8-8.9c.1 2.2-1.3 7.3-2.8 8.9zm4.4 42.1v-3.8c.1 0 .2 0 .2 0c.2 1.2 .3 2.4 .5 3.7c-.1 0-.4 .1-.8 .1zm0-51.5c.2-1.3 .4-2.5 .5-3.9c.3 0 .5 .1 1.2 .2c-1.5 1-.1 2.8-1.7 3.6zm1.1 9.7c-.5-1-.1-1.5 .8-1.7c-.3 .5-.5 1.1-.8 1.7zm3.8-14c.2-1.1 .4-2.2 .5-3.3c0-.2 0-.4 0-.6c0-.2 0-.3 0-.5c0 .2 0 .3 0 .5c0 .2 0 .4 0 .6c.2 1.5 1 2.8 1.2 4.3c.1 .4 .1 .7 0 1.1c-.5 .7-1 1.3-1.7 2.1c-.4-1.5-.3-2.9-.1-4.2zm.2 6.6c.2-.6 .5-1.2 .7-1.8c.3 0 .4 .1 .8 .1c-.4 .7-.8 1.2-1.1 1.8c-.1-.1-.2-.1-.3-.2zm1.2 10.3c-.5-.9-.2-1.4 .5-2c.4 .8 .2 1.4-.5 2zm1.1-6.6c-.3-.3-.5-.5-.8-.8c0-.1 0-.5 .1-.8h.7c.1 .3 .3 .6 .5 1.1c.3-.4 .6-.8 .9-1.2c.1 .1 .2 .3 .2 .4c.3 .9-.4 1.6-.5 2.3c-.3-.3-.6-.6-1-1zm1.1-12.8v3h-1c.2-1-.4-2 1-3zm-1.7-49.1c2.1 1.8 2.2 2.1 2 4c-.6-1.2-1.2-2.4-2-4zm2 110.6c1 .4 1.5 .6 2.1 .9q-1 .3-2.1-.9zm1.3-18.1v-2.8c.6 1.3 .3 2 0 2.8zm1.4-44.2h-.9v-3.3c1.1 1 .8 2.1 .9 3.3zm1.7 31.3h-.4c-.8-1.9-1.3-4.1-1.6-6.4c-.5-4-.2-8.4-.1-12.1l.9-.9v-3.6c.4 .7 .6 1.4 .8 2.1c1 3.9 .2 8.8 .2 12.6c-.3 .2-.7 .5-1 .8c.3 .4 .4 .8 .5 1.3c.2 1.1 0 2.1 .1 3.2q.9 1.6 .7 3.1zm1.5-10.6c.3 1.7 .5 3.4 .8 5.1c.4 2.7 .8 5.3 1.3 7.9c-.1 0-.2 0-.3 .1c-.5-1.3-1.7-5.1-2.2-8.3c-.3-2.2-.4-4.1 .4-4.7zm1-18.9v1.8c-.4-.2-.6-.3-1.1-.4c.4-.5 .7-.8 1.1-1.3zm-.4-9.8v3.2c-.6-1-.3-2.1 0-3.2zm4.1 56.9c-.1 .1-.2 .1-.3 .2c-.1-.2-.3-.3-.3-.5c0-.1-.1-.3-.1-.5c-.2 0-.4 .1-.6 .1c-.4 .1-.8 .2-1.2 .3v2h-1c0-1 .1-2.1 .1-3.1c.1-1.8 .1-3.6-.2-5.3c-.3-1.4-1.3-2.7-1.3-4.1c.7 .6 1.3 1.1 2.2 1.8c.1-1.3 .2-2.2 .3-3.6c.4 1.9-1 9.5 .7 10.5c.2-.4 .4-.8 .8-1.5c.4 1.6 .6 2.7 .9 3.7h0zm-.1-60.6c-.2 .2-.5 .4-.7 .7c-.2-.6-.4-1.1-.6-1.8c1.2-.5 .7 1 1.4 1.1zm-1.8-47c1.6 .7 1.8 1.8 2.4 2.7c-.1 .1-.3 .2-.4 .3c-.6-.9-1.1-1.8-1.9-3zm1.1 72.6c-.5-.9-1.2-1.7-.7-2.7c1.3 .7 .6 1.8 .7 2.7zm-.2-20.2c-.5 .1-.7 .1-1 .2v-2.2c.4 .8 .6 1.3 1 2zm-.9 8.7c.9 2.2 1.3 4.3 1.2 6.6c0 0 0 .1 0 .1c0 0 0-.1-.1-.1c-.8-1.6-1.9-5-1.1-6.6zm2.5 24.9c-.5-.6-.7-1-1.1-1.5c.5-.1 .7-.1 1.1-.2v1.7zm-.1-5c-.2-.4-.4-.8-.7-1.4c.2-.1 .5-.3 .8-.4c.2 .4 .4 1 .7 1.6c-.4 .1-.6 .1-.8 .2zm.3-81.1c.7 1 1.7 1.4 1.9 2.5q-1.7-1.1-1.9-2.5zm2.4 88.8c-.1 .1-.2 .1-.3 .2c-.2 .2-.5 .3-.7 .5c0-.4 0-.8 0-1.2c0-3.2-.2-5.9 .1-9.2c.4 .3 .7 .5 1 .8c-1.5 3-.2 6-.1 8.9zm-5.3-93.4c.3 1.8 3.1 3.3 4.6 4.3c-2.3 0-3.5-1.2-4.7-2.6c-.5 .9-1.1 1.3-1.5 2.1c-.6-.4-1.2-.9-1.8-1.3c-.8-.6-1.7-1.3-2.6-1.9c-.4-.3-.7-.5-1.1-.8c-.1 .6-.1 1-.2 1.4c0 .1 0 .1 0 .2c1.2 .5 2.4 1.1 3.5 1.9c.5 .3 .9 .7 1.4 1.1c.9 .8 1.7 1.7 2.4 2.7c.4 .5 .7 1 1 1.5c-.8-.8-1.6-1.6-2.4-2.4c-.1 .1-.2 .3-.3 .4h-1c1.3 1.3 2.6 2.6 3.6 3.6v1.6c-1.3-.1-3.1-3-3.7-4.2c-.3 2 1.2 3.1 1.4 4.6c-1.9-.7-1.6-2.7-2.7-3.8l-.6 .6c0 1.1 1 2.1 .6 3.6c-.7-1-1.3-1.8-2.1-2.7c-.7 2.3 1.3 1.9 1.2 3.9c-1.1-1.1-2.1-2.1-2.9-2.9h-1.5v.9c1.6 .3 2 1.5 2.1 2.9c-.7-.9-1.4-1.8-2.2-2.9c-.7 .2-.5 1 0 1.9c.6 1.1 1.6 2.4 1.8 2.6c-1.8-.8-2.5-2.1-2.9-3.6c-.2-.8-.3-1.6-.4-2.5c-.4 .5-.7 .9-1.1 1.4c-.1 .1-.1 .2-.2 .2c.4 2.3 .3 4.7-.2 7.1c-.6-2.5-2-4.6-3.6-6.6c.3 2.3 1.6 4.9 2.5 7.1c-.6-.3-1.1-.4-1.4-.6c-.8-2.8-2-5.4-3.4-7.8c-.1-.1-.1-.2-.2-.3v-2.7c-.3 0-.5-.1-.9-.1v3.5c-.2-.2-.4-.3-.5-.4c-.1-.1-.2-.1-.3-.2c0 .1 0 .1 0 .2c-.1 .5-.1 1-.2 1.6c-1.9-.1-2.2 4.2-2.4 5.4h-.9v-6.2h-1c-.1 2.5 .3 5-1.1 7.2c-.8-.9 .1-1.5 .2-2.2c-.2-.1-.4-.2-.7-.4c-.4 1.1-.9 2.1-1.5 3.5c-.6-2.3 .3-3.7 1.5-5q-1.4-.1-2.5 2.1c-.9-3.3-1.6-4.5-2.8-5.3c-.3 .2-.3 .4 .2 .7c-.1 .6-.3 1.2-.4 1.9c-.6 3-1.2 6.4-3.8 7.8c-.2 .6-.7 1.4-1.9 1.8c.4-2 1.2-3.5 1.9-5.1c-1-1-2.4 1.7-3.2 2.2c-.4 .8-.8 1.6-1.5 2.8c-.1-1.1-.2-1.7-.2-2.2c-.7 0-1.8 1.5-2.2 1.9c-.6-.2-1.1-.4-1.6-.6c-.4 .1-.8 .3-1.3 .5c-.1-.1-.2-.2-.3-.3c1.3-2.3 2.2-3.2 4.4-4.7c-2.4-.8-3.3 1.5-5.1 1.6c-.1-.8-.1-1.6-.2-2.4h-.7c-.4 .9-.9 1.9-1.4 3c-.3-.5-.5-.8-.9-1.5c-.6 1.3-.9 2.3-1.4 3.3c-.4 0-.7 .1-1.3 .1c-.4 .7-.8 1.5-1.3 2.6c-.3-4 1.2-7.6 .5-11.4c0-.2-.1-.4-.1-.6c-.1-.2-.1-.5-.2-.7c-.1-.3-.2-.5-.3-.8c-.1-.2-.2-.5-.3-.7c-.2 .2-.4 .4-.6 .6c0 .1 0 .2 0 .3c0 .3 .1 .6 .1 .9c0 .2 0 .4 .1 .6c0 .3 0 .5 .1 .8c.2 3.1 .2 6.2-.5 9.4c-.4-.5-.6-.8-1-1.3c-.4 .9-.8 1.5-1.1 2.2c-1.3-1.5 1.6-4.4 .3-5.9c-1.9 1.8-1 4.5-2.2 6.5c-1.4-2.2 1.6-5.5 .5-7.7c-.6 .2-1.2 .4-2 .6c-.3-1-.5-2-.8-3c0-.2-.1-.3-.1-.5c-.3 0-.4 0-.6 0c-.1 .1-.1 .2-.2 .4c-.8 2-.6 6.6-.9 8.5c-.6 .2-1.1 .3-1.7 .5c-.1 0-.2 .1-.3 .1c0-.5 .1-1 .3-1.5c.6-1.6 1.6-2.9 1.3-4.8c-.2 .4-.4 .9-.7 1.6c-.2-.5-.3-.8-.3-1c-.1-.2-.1-.3-.2-.5c-1.2 .3-1.2 1.7-2.2 2.4c-.2-1.8 1.5-2.4 2-4c-.3 .1-.5 .1-.8 .2s-.5 .1-.8 .2c0-.4 .1-1 .1-1.8c-.4-.3-1-.9-1.7-1.5c-.7 .5-1.4 .9-2.2 1.4c-.1-.4-.1-.9-.2-1.6c-.4 .6-.7 .9-1.1 1.5c-.1-.8-.2-1.2-.3-1.7c-.2 0-.4-.1-.8-.2v-1.8c-1.2 0-1.5 .6-2.4 1.3c.1-1 .3-1.8 .4-2.6c0 0 0 0 0 0c0-.4 .1-.7 .2-1.1c-.4-.1-.6-.1-.9-.2c-.1 .2-.2 .4-.2 .7c0 .7 .2 1.5-.9 1.7c-.1-.8-.2-1.5 .1-2.3c.1-.2 .1-.3 .2-.5c-.2 0-.5 .1-.7 .1c-.3 .1-.6 .1-.8 .2c-.5 .1-.9 .2-1.5 .3c.1-.4 .4-1.1 .7-1.9c.9-2.4 2-6 .9-7c-1.2 1.7-1.4 3.9-1.7 6c-.1 .5-.1 1.1-.2 1.6c-.8 1.2-2.3 1.6-3.9 2.5c.7-1.8 2.5-1.8 3-3.1c-.1-.2-.1-.4-.3-.7c-2 1.1-3.5 3-5.8 3.5c-.1-.3-.1-.5-.2-.7c2-1 3.9-2.2 5.3-3.9c-1.2-1-1.6 .9-2.8 .7c-.4-1.5 1.5-1.2 1.8-2.2c-.3-.2-.6-.3-.9-.3c.2-.2 .3-.5 .5-.8c-.2-.3-.3-.6-.6-1c.2-.4 .5-.8 .8-1.2c.1-.1 .1-.2 .2-.3c0 0 0 0 0-.1c.1-.2 .3-.4 .4-.7c-.2-.2-.4-.4-.7-.7c0 0 0 0 0 .1c-.2 .3-.3 .7-.5 1c0 0 0 .1 0 .1c-1.1 2.3-1.9 4.6-4.5 5.7c.7-2.1 1.6-3.9 2.6-5.9c-1.8 .4-2.7 2.7-3.7 4.1c-.7-.2-1.2-.4-1.8-.6c-1.2 .4-2.5 .8-3.9 1.3c.7-2 3.4-1.6 3.8-3.6c-2.2-.5-4.8 1.8-7.2 1.8c1.3-1.5 5.5-2.3 7.4-3.1c0-.2 0-.4 0-.7c-1.8 .2-3.3 1.3-5.5 1.4c1.5-1.2 3.6-1.3 4.2-3.2c-.9-.5-4.5 1.9-5.4 2.4c.3-.7 .4-1 .6-1.5c.6-.6 1.8-.3 2.5-1.3c-1.9-.8-3.3 .9-5 .6c0-.1 .1-.3 .2-.4c.7-1 2.6-.8 2.7-2.7c-1.3 .6-2.5 1.2-4.1 1.9c1.6-2.5 5.2-3.3 6.1-6.1c-1.5 .6-2.7 1.5-4.1 2.6c.3-.8 .5-1.4 .7-1.9c1.2-.3 2.1-1.4 3.6-1.1c.1-.5 .2-1 .2-1.5c0-1.7-.4-3.5 .9-5c-.1-.1-.2-.2-.4-.4c0 0 0-.1 0-.1c.2-.7 .5-1.3 .8-2.3c-.5 .3-1 1.1-1.5 2.1c-.9 1.8-1.4 4.2-.4 5c-.3 .4-.7 .8-1.1 1c-1.2 .9-2.9 1.2-4.3 2.3c.1-.4 .3-.7 .5-.9c.9-1.2 2.3-1.6 3.6-2.6c-1.1-1.4-3.7 .8-4.8 1.3c1.1-1.8 2.6-2.5 3.2-3.9c-.2-.1-.4-.2-.5-.3c-.8 .9-1.5 1.8-2.6 2.9c-.3-.8-.5-1-.7-1.6c.1-1 1.7-1.1 2.3-2.3c-1.1 .2-2.2 .4-3.3 .6c.7-.7 1-1 1.7-1.7c-1 .3-1.7 .4-2.3 .6c-.1 0-.2 0-.2 .1c-.2-.4-.3-.7-.5-1.1c-.3 .5-.5 .8-.9 1.4c-.3-1-.1-1.8 .1-2.7c.1-.3 .2-.7 .3-1c.2-.2 .8-.6 1.2-.9q.5-3 2-5c-.3-.2-.7-.3-1-.5c.3-1.5 1-2.6 1.9-3.8c.5-.7 1.1-1.4 1.6-2.2c.5 1.4 .2 2.5 .4 3.6c.2 0 .5 .1 .9 .1V334c.5-.8 .9-1.4 1.3-1.9c.4 .3 .8 .7 1.4 1.2c.1-.7 .2-1.1 .3-1.6c.5-.1 .9-.2 1.4-.3c.6-.1 1.2-.3 1.8-.4c.1-.4 0-.8-.3-1c.7-.3 1.4-.7 2-1c.8 .1 1.7 .2 2.6 .3c.4-1.2 1.2-2 2.3-2.4c-.7-.5-1.2-1-1.7-1.4c1-.9 2-1.8 3.1-2.8c-.3-.4-.5-.6-.7-.9c.8-.3 1.4-.1 2.1 .7c-.1 .1-.3 .1-.4 .2c-.1 0-.2 .1-.3 .2c0 0 0 0-.1 0c0 0-.1 .1-.1 .1c0 0 0 0-.1 .1c0 0-.1 .1-.1 .1c0 0 0 0 0 .1c0 0-.1 .1-.1 .1c0 0 0 0 0 .1s0 .1 0 .1s0 .1 0 .1s0 0 0 .1s0 0 0 .1c0 0 0 0 0 0c0 0 0 0 0 0c0 0 0 .1 .1 .1c0 0 0 0 0 0c0 .1 .1 .1 .2 .2c.1 0 .2 0 .3-.1s.2-.1 .3-.1c.5-.2 .7-.6 .5-1.5c-.1 0-.1 .1-.2 .1c-.2-.3-.2-.8-.2-1.4c1.1 .4 2 .7 2.9 1c0 0 0 0 0 0c.3-1.1 .4-1.1 1.4-1.3c.1 .9-.3 1.4-1.4 1.7c-.1 .5-.1 1-.2 1.6l.5 .5c.5-.7 1.3-.4 2-.5c.1-.4 .1-.9 .3-1.5c.6 .2 1.1 .4 2 .7c-.3-.7-.4-1.1-.6-1.5l1.6-1.6h10.2c.1 .4 .2 .7 .4 1.1c.4-.2 .7-.3 1.2-.6c1.2 .2 2.6-.4 4 .5c.3-.2 .6-.4 1.1-.6c.2 .4 .4 .7 .7 1.2c.5-.4 .9-.7 1.3-1.1c1 .5 1.5 .7 1.8 1c.3 .3 .4 .7 .5 1.4c.4-.5 .7-1 1.1-1.5c0 0 0 0 0-.1c0 0 0 0 0 .1c.1 .4 .2 .9 .3 1.4c.4-.4 .7-.7 1-.9c1 .5 2.2 .5 3.5 .4c.4 0 .8-.1 1.2-.2v1.7c.4-.1 .6-.1 1.1-.2c-.4-.5-.6-.9-1.1-1.5c1.2-.2 2.5-.6 3.7-.9c1-.2 2-.4 2.8-.4c-.2 .4-.4 .8-.5 1.2c.3 .1 .5 .2 .6 .3c.3-.4 .6-.8 1.1-1.5c.1 .8 .2 1.3 .3 1.7c.9 .2 1.6-.2 2.1-1.3c.4 .6 .8 1.1 1.3 1.8c.5-1.1 .4-1.9-.3-2.8c1.6 .1 1.5 1.3 2.1 2c-.1 .1-.2 .2-.3 .4s-.2 .3-.4 .5c.2 .3 .5 .7 .7 1.1c.4-.7 .9-1.3 1.2-1.8c0-.2-.1-.3-.1-.5c-.1-.5-.2-1-.4-1.4c.9-.2 1.2 .2 1.4 .7c.2 .3 .3 .6 .6 .8c.3-.5 .5-.9 .7-1.2c.2 .2 .3 .3 .6 .5c.1-.5 .2-1 .2-1.4c1.9-.2 3.7-.4 5.4-.6c.3 .5 .6 1 .9 1.4c.2-.2 .4-.4 .6-.5c.2-.2 .5-.4 .7-.6c.1-.1 .1-.1 .2-.2c.2-.1 .3-.3 .5-.5c.6 .3 1.3 .5 2 .7c.2-.2 .4-.6 .6-.9h1.6c.7 .7 1.4 1.4 2.1 2.1c1.2-.8-.1-1.2 .2-2c.1-.1 .4-.3 .9-.6c.2 .1 .6 .3 1.1 .6c.6-.3 1.3-.6 2-.9c.7 .7 1.4 .4 2.2-.2c.7 .6 1.4 1.2 2.1 1.8c.1 .1 .2 .2 .4 .3c.1-.2 .2-.5 .4-.7c.1-.2 .2-.3 .3-.6c0 .1 0 .3 0 .4c.1 .7 .1 1.3 .2 2c.6-.4 1-.7 1.6-1.1h2.9c-.6 .3-.9 .4-1.3 .6v.7c.4-.1 .8-.2 1.2-.3c.4 .6 .9 1.3 1.4 2.2c.1-.1 .4-.2 .7-.4c.6 .3 1.3 .7 2.1 1.2c-.4 .2-.6 .3-1 .4c-.1 .3-.2 .8-.3 1.7c-.5-.6-.8-1-1.1-1.5c-.4 .3-.8 .6-1.2 1c.5 .5 .9 .8 1.5 1.4c.8 .2 2 .4 3.2 .7c.3 .3 .7 .8 1.2 1.4c-.1 .5-.3 1.3-.5 2.1c.9 .6 1.1-.5 1.6-.7c.5 .6 .3 2.2 .3 2.8c.9-.7 1.4-1.2 2-1.6v-2.2c.5 0 1 .1 1.6 .1c-.5 .7-.8 1.1-1.1 1.6c-.2 .8-.3 1.6-.6 2.7c.5-.2 1-.3 1.7-.5c-.6 .8-.9 1.2-1.3 1.7v1.2c.5 .5 1 1 1.5 1.5c.3-.4 .5-.8 .7-1.1c.4 0 .7 .5 .9 1.2c.7 1.8 1 5.1 .9 6.4c0 .2-.1 .3-.1 .4c.1 .1 .3 .3 .4 .5c.2 .2 .4 .4 .6 .7c-.1 .1-.1 .2-.2 .4c-.3 .6-.6 1.2-.9 1.8c0 .1-.1 .2-.1 .2c-.1-.1-.2-.2-.3-.2c-.5-.3-.9-.7-1.6-1.2c.1 .4 .3 .8 .5 1.2c1 1.8 3 3.3 2.9 5.2c-1.1-1.4-2.1-2.5-2.9-3.5h-1.1c0 1.3 1.9 3 2.4 4.3c-.8-.5-1.4-.8-2.2-1.2c.4 1.5 .7 2.6 1.1 3.9c-.2 .1-.5 .2-.9 .3c.5 .8 1 1.7 1.6 2.7c-2-.7-2.1-2.9-3.8-3.4c-.1 .2-.2 .3-.4 .5c.5 .7 1.1 1.4 2 2.4c-2.5-1.3-3.3-3.8-5.2-5.8c.1 3.7 3.7 5 4.8 8c-1.2 .2-2-1.1-3-.5c-.4-.4-.9-.9-1.7-1.7c-.2 1.9 .7 3.2 2.2 4.4v1.2c-.7 .1-1.7-1.5-2.1-1.9c-.4 .3-.7 .4-1 .6c-.4-.5-.4-1.5-1.7-1.3c.2 1.3 1.2 2.1 1.8 3.1c-.2 .4-.3 .7-.5 1.2c-.5-.3-1.1-.6-1.7-.9c-.1 .5-.1 .9-.2 1.4c-1.2-1-2.4-1.9-3.6-2.8c-.6 1 .7 1.1 .7 1.8c-.7 .2-1.9-.3-2.7-.3c-.2 .4-.5 .8-.8 1.2c2.6-.6 3.9 0 6.9 3.5c-2.2 .4-3.6-1.4-5.7-1.9zm-82.3-44.9s0 0 0 0c0 0 0 0 0 0s0 0 0 0zm89.3 96.9v2.2c-.4-.8-.6-1.3-1-2c.5-.1 .7-.1 1-.2zm1.5 38c-1-.4-1.1-1.3-.4-2.8c.1 0 .3 0 .4 0v2.8zm1-11.1c-.6 .5-1.1 .8-1.7 1.3c-.1-.6-.2-1.1-.3-1.7c-.4 .2-.8 .3-1.1 .4c-.2-.2-.4-.4-.7-.7c.5-.3 .9-.6 1.3-.9c.3-1.3 .6-2.6 .9-4.1c.1-.6 .3-1.3 .4-1.9c.1-.1 .5-.4 .9-.7c-.1-.6-.2-1.1-.4-1.7c-.1-.3-.1-.6-.2-.9c.1-.1 .5-.2 .8-.3c.1 .2 .1 .4 .2 .7c.1 .3 .2 .6 .3 .9c-.5 1.2-.9 2.8-1 4.3c-.2 1.7 0 3.4 .7 4.6c1.7 3.2 5 6.4 7.5 9.4c.2 .3 .5 .6 .7 .8c.1 .1 .2 .2 .3 .3c-.2 .4-.4 .8-.5 1c-.3-.4-.6-.8-1-1.3c-2.4-2.9-6.1-6.5-7.1-9.7zm3.6 17.2c-.2-1.1-.4-1.9-.6-2.8c.8 .3 1.5 .5 2.4 .8c-.5 .8-1.1 1.4-1.9 1.9zm3.4 19.4c-.3-1.7-1.8-2.3-1.7-3.8c1.6 1.3 1.8 1.8 1.7 3.8zm-1.6-13.3c.4-.2 .8-.4 1.2-.6c.1 1.4 2.1 1.7 2.1 3.4c-1.2-.8-2.7-1.3-3.3-2.8zm3.3 2.8c.4 .4 .8 .9 1.1 1.3c-.8-.1-1.2-.5-1.1-1.3zm1.8-16.5v2.4c-.6-1-.9-1.6-1.4-2.5c-.1-.2-.2-.3-.3-.5c.9 .3 1.3 .4 1.7 .6v0zm-.6-1.4c-.6-.4-1.2-.8-1.9-1.2c0 0-.1 0-.1-.1c0 0 .1 0 .1 0c1.6-.4 2.7 .4 3.9 1.2c-.7 0-1.4 .1-2.1 .1zm2.3-38.4c-.2-.8-1-1.3-.6-2.2c0-.1 .1-.2 .1-.3c0 .1 .1 .2 .1 .3c.3 .7 .9 1.2 .3 2.2zm1.1 50.5c1.6-.1 2.8 2.7 3.6 3.9c-2.1-.7-2.3-2.6-3.6-3.9zm4.3-8.1c-.1 .2-.2 .4-.3 .6V457c.3-.2 .6-.5 .9-.7c-.1 .5-.3 .9-.6 1.3c.2 .3 .4 .5 .6 .8c-.2 .4-.4 .7-.6 1.2zm-.5-22.3c.8 .3 1 .7 1 1.2c0 .4-.1 .8-.2 1.2c-.2-.5-.3-1.1-.5-1.6c-.1-.2-.1-.5-.2-.7zm.4 14.6c.3 .9 .6 1.5 .9 2.4q-1.2-.9-.9-2.4zm1.8 6.2h1.5c.6 .6 1 1 1.3 1.3c-.7-.3-1.6-.8-2.8-1.3zm.9-10.2v-1.8c.8 .3 1.1 1 .7 1.8h-.7zm-4.4-26.4c.6 .3 1.1 .6 1.9 .9c2 0 3 0 4.7 1c-1.4 0-6.5-.1-6.5-1.9zm7.4-14c-.3-.4-.6-.9-.9-1.4c-.8-1.6-1.5-3.5-1.9-5.5c-.4-1.8-.8-3.7-1-5.6c-.3-2-.5-3.9-.7-5.4c-.2-1.4-.2-2.8-.2-4.2c.2-6.3 2.1-12.4 2.1-18.9c.3-.3 .5-.5 .8-.8c.8 2.5-.9 8.2-1.2 10.8c-.4 3-.4 6.2-.3 9.3c.1 1.7 .2 3.5 .4 5.1c1 1.5 1.2 3.5 1.4 5.3c.1 .6 .1 1.2 .2 1.8c.1 .5 .2 1.1 .3 1.7c.2 .8 .4 1.6 .6 2.5c.3 1.1 .5 2.3 .6 3.4c.1 .7 .1 1.3 0 1.9zm.4 52.3c.6 .3 1.2 .6 1.9 .9q-1.4 .1-1.9-.9zm3-4.3c-1.3-2.3-2.2-4.4-2.8-7c.2 0 .3-.1 .5-.1c.9 2.2 2.6 4.8 2.3 7.2zm1.8-8.2c.3 .7 .5 1.2 .9 2q-1.1-.8-.9-2zm1.5-10.2c-.3-1.8-.8-4.1-1.4-6.4c-.7-2.7-1.7-5.3-2.8-6.8c.5-.1 .9-.1 1.4-.2c.8 2.1 1.9 4.5 2.6 7c.6 2.1 .8 4.3 .2 6.3zm-5.4-29.9c1.2 3.1 4.3 8.8 4.1 12.2c-1.6-3.5-4.9-8.1-4.1-12.2zm5.3 13.6c.4 .7 .6 1.3 .9 1.8q-.9-.5-.9-1.8zm2.6 40c-.4-.2-.9-.4-1.4-.7c.1-.3 .2-.5 .4-1c.5 .6 .9 .9 1.3 1.3c-.1 .1-.2 .2-.3 .3zm-.7-29.7c0-.3 0-.6 .1-.9c.1 .3 .2 .6 .2 .9c.4 1.4 .9 2.8 .3 4.4c-.8-1.5-.8-3-.7-4.4zm1.7 28.5c.6-.9 .9-1.5 1.3-2.1c.1 .1 .2 .1 .3 .2c-.1 1.1-.6 1.7-1.7 1.9zm9.2-44.2c.2-.1 .4-.2 .8-.3c0 1.2 .2 2.4 .7 3.6c-1.2-.6-1.2-2.1-1.6-3.2zm3.1 14.7c1 .2 2 1.5 2.7 2.2c-1.4 0-2-.9-2.7-2.2zm3.5 25.9c-1.1-3-1.8-6.1-1.9-9.3c0-1 0-2 .2-3c.2-.2 .4-.4 .8-.8c0 1.9 .2 3.7 .4 5.6c.3 2.5 .5 5 .5 7.5zm78.4 .7c-1.6-2-1.7-5-2.8-7.3c-1.2-2.6-2.9-5.3-4.7-7.5c-3.6-4.3-8.2-8.3-13.1-11.1c0-3.1-.7-6.7-.6-9.9c0-.4 0-.7 .1-1c-.6-.9-1.1-2-1.4-3.3c-.6-2.2-.9-4.7-1.7-6.4c-.8-1.7-1.8-3.5-2.9-5.1c-.6-.9-1.3-1.8-1.9-2.5c1 .4 1.9 1 2.8 1.7c1.5 1.1 2.9 2.6 4.3 4c1.8 1.9 3.5 4 5 5.6c4 4.2 6.3 8.6 8.9 13.7c.6 1.2 1.2 2.4 1.8 3.7c3.7 7.7 7 17.3 6.2 25.4zm-37.6-79.3c-1.2-4.1-3.1-8.7-3.7-12.8c2.5-1.9 5-3.8 7.2-6.2c.2-.1 .4-.2 .7-.3c2.1-1.3 5.7-5.5 6.3-7.1c1.1-.9 2.2-2 3.2-3.2c5.1-6.1 8.6-15.8 9.7-22.7c.2-.2 .4-.4 .6-.6c.9 1.3-.4 2.4-.2 3.7c.4 .1 .8 .2 1.5 .3c0 0 0 0 0 0s0 0 0 0c-.5 .3-.8 .5-1.2 .7c.2 .6 .3 1.1 .3 1.7c.1 1.1 0 2.1 .2 3.1c.2 1.6 .7 3.5 .6 5.2c.8 .6 1.3 .2 1.9-.4c.3-1.4-.3-2.7-.8-4c.4-.3 .8-3.1 .9-3.3c-.3-.3-.6-.7-1-1.2c.6-.1 1-.2 1.6-.2c-.2-.4-.4-.8-.6-1.2c.2-.6 .5-1.3 .8-2.2c3.3 2.8 5.4 12.3 6.3 16.4c1.2 5.7 .9 12.5 .9 18.2c0 7.3-3.6 13.9-6.9 20.2c-2 3.7-2.1 4.3-2 8c0 1.3-.2 3.7 0 5.8c.1 .9 .2 1.7 .4 2.4c.1 .5 .3 .9 .6 1.1c-1.1 5.3 4.3 10.1 4.3 14.7c.4 .4 .8 .9 1.1 1.3c-.8-.1-1.2-.5-1.1-1.3c-3.9-3.1-5.1-9.5-5.6-15.6c-.1-1.1-.2-2.1-.2-3.2c-.1-1.8-.2-3.6-.4-5.1c0-.5-.1-.9-.1-1.4c-1 .6-2 1.9-2.8 3.5c-1.7 3.1-3 7.5-3.5 11.1c-.3 2-.3 3.7-.1 5c-.7-.4-1.4-.8-2.2-1.2c-1.4-.8-2.9-1.8-4.4-2.8c-4.1-2.9-8.4-6.6-10.4-9.7c0-5.5 0-11.4-1.6-16.6zm.2 14.7c-1.5 .5-5.4-6.4-6-7.5c-2.5-4.6-2.7-9.1-2.7-14.2l.8-.8c.4 .8 .9 1.7 1.4 2.7c.1-.1 .3-.3 .7-.4c1 .7 1.9 1.4 2.6 1.9c.8 3 1.6 5.8 2 8.8c.3 2.5-.3 7.6 1.2 9.5zm53.1-70.5c-.8 4.8-1.5 11.2-3.2 16.5c-.7 2.1-1.6 4.1-2.7 5.8c-.6 7.1-3.2 14.5-5.7 21.1c-1.1 3-2.4 6-3.7 8.9c-.9 1.9-2.7 7.6-4.6 8.6c1.4-5.8 5-11.4 7.1-17c1.1-2.9 5.6-11.3 4.1-14.2c-2.5 4.6-5.1 9-7.9 13.4c0-6.3 .2-13.1-.8-19.3c-1.3-8.7-5.1-16.4-8.9-24.2c-.1-.2-.2-.4-.3-.6c-2.2-4.5-3.2-9-3.9-13.8c-.2-1.6-.4-3.3-.5-5c-.2-2.9-.4-14.7 2.3-16.7c-.1-3.5 1.2-7.6 2.8-11.6c.2-.6 .5-1.2 .7-1.8c1.3-3.2 2.7-6.2 3.7-8.7c2.3-6 7.4-13.5 7.7-19.9c1 1.5 0 4-.1 5.7c-.1 2.8 .3 5.5 .7 8.3c3-1.5 1.2-8 3.2-10.2c0-.5 0-.9 0-1.4c.1-2.6 .5-5.3 .5-8c-.1-3.2-.8-6.7-.5-10c-1.5-2.4 .3-5.7-1.9-7.9c0 4.4-.8 9.1-.5 13.4c-1.1 1.4-1.5 5-2.2 6.8c0 .1-.1 .2-.1 .3c-.8 2.3-1.7 4.6-2.4 6.9c-1.5 4.4-3.2 8.7-5 13c-1.5 3.8-2.8 7.7-4 11.6c-.2 .5-.3 1-.5 1.6c-1.3 4-2.6 7.9-4.3 11.7c-.3-.4-.5-.9-.8-1.3q-.9 .8-.9 2.2c.4 .1 .9 .2 1.3 .2v2.1c-.3-.6-.4-.9-.6-1.2h-1.1c-.1 .6-.1 1.2-.2 1.8h-1.2c-.1-.4-.1-.8-.2-1.3c-.4 0-.8-.1-1.3-.1c.3-.5 .7-1.1 1.1-1.8h-1.8c-.3-.5-.5-.9-.6-1.1c.1-.8 .2-1.5 .4-2.2c-.6-.1-.9-.1-1.4-.2c.3-1 .6-2 1-3.2h-1.3q-.7 2.3-.3 4.4c-1.9-2-2.4-5.1-2.5-8.4c-.1-3.5 .3-7.3 .1-10h-1.2c-.2 .4-.4 .8-.6 1.2c-.4 2.7 1.7 7.3 .1 9.7c-.5-3.8-.9-7.5-.7-11.3c.1-1.3-.1-5.8 .9-6.7c0-1.3 .2-3.1 .7-4.9c.5-2.2 1.3-4.4 2.2-5.6c.1-1.1 .4-2.1 .7-3.1c.9-2.8 2.1-5.5 2.7-8.4c3.1-2.5 1.6-11.1 3.5-14.5c-.4-.1-.6-.2-.9-.3c-1.7 7.4-4.1 14.4-6.6 21.5c-1.8 5.3-5.8 13.7-4.6 19.3c-1.4 4.1-1.1 9.2 0 14.2c.1 .5 .3 1.1 .4 1.6c1.6 6.1 4.5 12 7.2 16.2c2.9 4.4 4.5 8.6 5.4 13.1c.9 4.2 1 8.6 .9 13.6c-.3 11-5.6 20.8-12.7 29.3c-2.1 2.5-4.3 4.9-6.7 7.1c-3.8 3.7-7.9 7.1-11.8 10.1c.3-3.4 1-6.7 1.8-10c.3-1.2 .7-2.5 1.2-3.9c.2-.6 .4-1.3 .6-1.9c.4-1.3 .7-2.6 .7-3.8c5.4-7.5 12-13 15.4-21.9c3-7.9 2.5-14.9 .1-22.1c-.7-2.1-1.5-4.2-2.4-6.3c-1.5-3.6-2.8-7.3-3.9-11.1c-1-3.4-1.8-6.8-2.4-10.3c-.2-1.2-.4-2.3-.6-3.5c-.4-2.8-1-6.5-.9-9.2c.1-4.6 1.7-9.9 .9-14.5c1.7-2.2 1.9-8.4 2.8-11.3c.7-2.3 4.6-9.2 3.6-11.4c-2.9 5.5-4.6 11-6.2 17c-.8 3-.5 9.3-2.1 11.5c.8 4.8-.6 9.9 .2 14.9c.2 1.4 .3 4.3 .6 6.9c.2 2.4 .7 4.7 1.6 5.4c-.7 3.8 .7 9 .5 13c-.2 4.3-1.7 8.9-3.4 12.8c-3.5 7.9-10.3 14.8-12.5 23.2c-1.3 1.6-2.4 3.4-3.5 5.3c-3.2 5.4-5.8 11.8-8.2 17c-2.2 4.8-3.6 9.9-4.5 15c-1.3 7.3-.4 14.4 1.8 21.4c.4 1.3 .8 2.6 1.3 4c1.9 5.7 4.5 12.2 8.4 16.1c-.9-3.6-3.3-7.2-4.7-10.7c-.7-1.6-1.3-3.2-1.9-4.8c-.9-2.4-1.8-4.9-2.6-7.4c.4 .2 .6 .3 .9 .4c.1-.2 .2-.5 .3-.9c0 0-.3-.2-.6-.3c0 0-.2 .2-.4 .4c-.1-.3-.3-.7-.5-1.3c0-.1 .2-.3 .4-.7c-.2-.3-.4-.7-.6-1.2c.4-.4 .7-.8 1-1.2c-.3-.8-.6-1.6-.9-2.4c.2-.1 .5-.2 .8-.3c.1-1.5-.2-2.2 .3-3.8h-2c0-.1-.1-.2-.1-.4c.7-.3 1.3-.5 2.2-.9c-.8-.3-1.4-.5-2.1-.8c.3-.8 .7-1.5 1-2.3c-.5-.3-.9-.5-1.4-.8c.7-.5 1.2-.9 1.8-1.3c-.4-.1-.6-.2-1-.3c-.1-1-.4-2.1 .4-3.2c-.4-6.2 5.2-15.1 8-20.3c1.1-2 2.2-4.3 3.3-6.5c2.2-4.5 4.5-9.1 7.4-12.6c0 .4-.1 .7-.2 1.3c.2 .1 .6 .3 1 .4c-.1 .2-.2 .3-.2 .5c-.6 .2-1.2 .5-1.9 .8v1.1c.2 .1 .5 .2 1.1 .4c-.5 .2-.8 .4-1.1 .5l-.4-.4c-.1 .3-.3 .7-.4 1c-.1-.1-.2-.1-.3-.2c.2 .6 .4 1.3 .6 2c-.5 .1-.9 .1-1.5 .2c.2 .8-.3 1.7 .5 2.6c-1.1 .3-1.7 1-2 2.1c.2 .3 .4 .6 .6 1.1c-.5 .5-1.3 1.8-1.9 3.2c-.5 1.3-.7 2.7-.1 3.3c-1.1 3.2-1.9 6.5-2.5 9.8c0 .3-.1 .5-.1 .8c-.3 1.8-.5 3.5-.6 5.3c-.3 3.9-1.5 12.7 .8 16c-.4 1.7 .4 5.7 1.8 6.9c.1-1.5 0-4.8-.9-6.1c.6-3.8-.7-8.3-.5-12.2c.1-3.3 .4-6.7 .9-9.9c.1-.4 .1-.8 .2-1.1c.1-.7 .3-1.5 .4-2.2c.6-2.6 1.3-5.2 2.2-7.8c1-2.9 2.3-5.8 3.7-8.6c2.7-5.3 4.8-10.7 6.4-16.4c1.2-4.4 2-14.9 6-17.7c-.9 3.8 .9 11.9-1.6 14.9c1.4 5.7-3.3 15.8-4.8 21.3c-1.1 3.9-2.2 7.8-3.2 11.7c-.2 .8-.4 1.6-.6 2.4c-.5 1.9-1 3.9-1.4 5.8c-3.5 15.5-.4 26.2 10.4 37.7c2.9 3.1 5.2 6.4 7 10c4.6 9.3 5.7 19.9 4.5 30.7c-.3 3.2-1.1 6.3-2.2 9.3s-2.4 6-3.8 8.8c-1.9 3.8-4.1 7.4-6.8 10.6c-1.9 2.2-4.4 3.8-6.1 6.1c-.7 0-1-.1-1.4-.1c.9-2.7 3.7-5.1 5.3-7.4c2.1-3.1 3.4-6.3 4.6-9.8c1.5-4.2 2.4-8 3-12c.3-2.4 .5-4.8 .5-7.4c-.3-.5-.5-.9-.8-1.5c-.5 2-1.1 4.3-1.7 6.5c-.9 3.1-2.2 6.2-4.1 8.5c.6-3.1 2.2-6.5 3.4-9.7c.3-.7 .5-1.5 .7-2.2c1.4-4.9 .9-6.6 .3-11.4c-.5-4.5 1-11.7 .1-17.3c-.4-2.2-1.1-4.1-2.5-5.6c-.2 1.8-.1 3.9 .1 6c.3 2.9 .7 6 .7 8.6c0 5.3-.5 10.2-1.6 15.2c-.3 1.2-.6 2.5-.9 3.7c-2.9 10.8-8.8 24.6-17.2 32.2c2.2-9.5 3.4-18 3.4-27.8c.5-.6 1-1.1 1.7-1.8c-.5-.3-.9-.5-1.4-.8c.4-.5 .7-.9 1.1-1.3c-.3-.4-.7-.9-1.2-1.6c.7 0 1-.1 1.5-.1c.2-.5 .5-1 .9-1.7c-.7-.1-1.4-.2-2.2-.3c.5-.2 .8-.4 1.2-.6c-.2-.4-.4-.8-.6-1.3c1.1-.5 1.8-1.3 2-2.5c-.3-.1-.6-.3-1-.5c.1-.2 .3-.3 .4-.5c-.2-.2-.5-.5-.7-.8c-.1-.1-.1-.1-.2-.2c.1-.1 .3-.1 .4-.2c.2-.1 .4-.2 .7-.4c-.1-.2-.2-.3-.4-.5c-.2-.2-.4-.5-.7-.8c-.3 .5-.5 .9-1 1.6q.3-2.4-.4-3.9c-.4 .3-.8 .5-1.1 .7c0 2.5 0 5 0 7.4c-.1 6-.4 11.8-2.2 17.8c-2.2 7.5-5.4 14.8-9.5 21.4c-1.2-1.7 2.1-7 2.1-9c2.3-3.6 2.2-9.2 2.8-13.3c.6-4.2 .7-8.5 .9-12.8c0-.8 .1-1.5 .1-2.2c-.5 .4-.7 .7-.9 .9c0 .5 0 1.1 0 1.7c0 3.5-.6 8.3-2 11c-.1 1.4-.3 2.8-.6 4.2c-1.1 4.6-3.3 9.2-5.4 13.3c-.2-.1-.5-.2-.9-.4c3.9-4.8 3.9-11.5 5.9-17.1c.2-.5 .4-1 .6-1.4c-.2-.3-.5-.6-.7-.9c-.8-1-1.6-1.9-2.4-2.8c-.1-.2-.3-.3-.4-.5c-.4 .1-.7 .3-1.3 .5c.4-.5 .5-1 .5-1.5c-.9-1.3-1.7-2.7-2.6-4c-.6-.9-1.2-1.9-1.9-2.9c-.7 .5-1.3 .9-2 1.4c-.4 .2-.7 .5-1.1 .8c-.1-.5 0-.9 .3-1.2c.6-.7 1.8-1.1 2.4-1.5c-.1-.8-.3-1.6-.4-2.3c-4.2-5.6-4.6-12.4-7-18.6c-.3-.9-.7-1.8-1.2-2.6c.7-3.3-.1-6.9-.8-10.4c-.3-1.4-.5-2.8-.6-4.2c-.2-2.3-.1-4.6-.1-6.9c0-1.6 0-3.1 0-4.7c-.1-3-.7-5.6-1.3-8.8c-1.3-6.8-.7-12.7 0-19.4c.4-3.6 1.1-6.9 2.2-10.4c.7-2.1 3.9-7 3.9-8.9c0 0-.1 0-.2-.1c-.1-.1-.3-.1-.4-.2c-.7 .9-1.3 1.8-2 2.7c-2.4 3.4-4.8 7.1-6.9 10.9c-2.1 4-3.9 8.2-4.9 12.3c0 .1-.1 .2-.1 .3c-1 .8-.2 2-.5 2.8c-.5 .7-.9 1.3-1.3 2c-.2-2.1 .3-4.6 1.1-6.9c.5-1.5 1.1-2.9 1.6-4.2c-.4-.9 .3-2.7 1.3-4.7c1.8-3.5 4.6-7.6 5.3-8.7c1.4-2.3 3.1-4.5 4.9-6.6c.8-1 1.6-2 2.4-3c1.8-2.4 3.6-4.8 4.9-7.4c.9-1.8 1.9-3.8 3-6c.2-.5 .5-.9 .7-1.4c.5-1.1 1-2.2 1.6-3.3c3.7-8.1 6.7-17.4 3.6-24.7c-.2-.5-.4-1-.7-1.4c0-2.1-1.2-6-2.7-7.5c-.1 1.1-.3 4.8 .7 5.5c0 .6 0 1.6 .1 2.7c.1 3.4 .1 8.2-1.4 9.6c0 1.9-1 6-2.5 7.4c.6-3.7 1.9-7.2 2.4-10.9c.3-2.4 .2-4.5 0-6.7c-.1-1.5-.3-3.1-.3-4.7c-.6 1.2-1.1 2.5-1.5 3.8c-.9 2.5-1.7 5.1-2.9 7.5c0 3-2.1 6.6-3.3 9.6c-.1 .3-.2 .6-.3 .9c-.9 2.9-1.1 7.1-2.7 9.7c.2 4-1.3 8.7-1.8 12.8c2-.4 4.8-4.9 6.1-6.3c.5 3.7-6.2 6.9-6.8 10.1h-.8c-.9 1-1.9 2-2.8 3.1c-1.7 1.9-3.3 3.8-4.8 5.8c-3.2 4.1-6.1 8.4-8.5 13.1c-.4 .8-.8 1.5-1.1 2.3c-1.1 2.4-2 4.9-2.8 7.4c-.8 2.7-.9 8.1-2.7 10.1c.3 2.1-.7 4.1-.5 6.3c.5 .1 .6-.4 .8-.5c1.3-8.7 3.7-16.9 7.6-24.7c1.7-3.4 3.7-6.8 6-10c-.5 2.3-1.5 4.6-2.6 6.9c-.1 .2-.2 .3-.2 .5c-.6 1.2-1.3 2.5-1.9 3.7c-1 1.9-1.9 3.9-2.5 5.8c-1.7 5.5-4.3 12.5-3.7 18.3c-1 2.8-.2 5.6-.5 8.5c.4 .7 .6 1.6 .7 2.6c.1 1.4 .1 2.9 .4 4c.5 2.1 1.3 4.2 2 6.3c.6 1.5 1.2 3 1.9 4.5c1.6 3.5 3.4 6.8 4.7 10.4c1.7 4.6 5.1 14.1 4.7 20.7c0 .4-.1 .7-.1 1.1c-.2 1.4-.6 2.6-1.3 3.6c0-1.6-.3-3.6-.5-5.4c-.1-1.2-.1-2.4 0-3.4c-2.4-3-2.8-9.2-4.3-12.9c-1.9-4.7-4.7-9.1-6.7-13.8c0-.1-.1-.2-.1-.3c-1.5-3.7-2.8-7.4-3.7-11.1c-.5-1.9-.9-3.8-1.2-5.7c-.6-3.7-.8-7.4-.7-11.4c.2-7.1 1.8-14 4.4-20.4c3-7.3 7.3-14 12.5-19.9c.7-.8 1.4-1.6 2.1-2.3c2-2.1 4.1-4.1 6.3-6c1.4-8.4 2.8-16.5 5.1-24.6c.5-1.8 1.1-3.6 1.7-5.4c1.3-3.8 3.3-7.7 4.6-11.6c.5-1.5 .9-2.9 1.1-4.4c.5-3.5-1.4-5.6-1.8-8.8c.2 .3 .5 .6 .9 1.2c-.3-4.7-2-8.9-3-13.4c-.1-.5-.2-1.1-.3-1.6c-.4-2.1-.6-4.2-.9-6.4c-.3-2.4-.7-4.7-1.3-7c-.3 2.3-.2 4.8 .1 7.2c.3 2.2 .7 4.5 1 6.6c0 .2 .1 .4 .1 .7c.6 3.6 2.7 11.5 1.2 14.1c-.9-3.3-1.8-7.2-2.2-10.7c-.4-.4-.5-.8-.5-1.2c0-.9 .2-1.8-.5-2.5c.4-2.1 .1-4.4-.3-6.8c-.4-2.3-1-4.6-1.2-6.6c-.6-6 .5-13.6-2.1-19.3c-.2 .2-.4 .4-.7 .7c1.6 6.9 1.3 14.8 1.5 21.9c0 1.5 0 2.9 0 4.3c0 .9 0 1.9-.1 2.9c-.1 2.9 .9 10.7-.7 13c-1.1-1.1-.7-7.3-.7-9c-.1-2-.2-4-.3-5.9c-.1-2.3-.2-4.5-.2-6.8c0-3.3 1.3-14.3-1.4-17.1c.3-2-.1-4.5-.7-7c-.3-1.3-.7-2.6-1.1-3.9c-.4-1.3-.8-2.6-1.1-3.7c-.5-1.8-.4-9.6-1.9-10.9c.8-4.9 .4-10.1 .9-15c.1-1.3 .3-2.6 .4-3.8c.2-1.4 .4-2.8 .6-4.2c.9 .6 1.3 .9 1.8 1.2c.3-.4 .5-.7 1.1-1.5c-1.1 .1-1.8 .1-2.9 .2c.5-2.7 1.2-5.3 2.1-8.2c3.3-9.8 3.3-19.2 5.3-29c-.3 .4-.6 .8-1.1 1.4c-.3-.1-.9-.2-1.5-.4c0-2.5 .7-7.1-1.4-9c0-7.7-.3-15.7-2.6-23c-2.3-7.3-6.7-13.9-10.1-20.7c-.4 .4-.6 .6-.9 .9c3.5 7.2 7.6 14.8 9.4 22.6c1.3 1 1.5 6.3 1.7 7.8c.6 4.3 .9 8.7 1.7 12.9c.1 .1 .4 .3 .8 .6c.4 2.8 .8 5.6 1.2 8.4c.2 .1 .4 .2 .8 .3c0 11.7-1.8 23.8-8 34c-.5-2.1 .6-4.6 .9-6.7c.4-3.3 .5-6.6 .8-9.9c.4-3.7 1.6-12.9-1.2-15.7c-.1 .3-.2 .5-.4 1c2.3 3.6 .9 13.7 .3 17.9c-1 6.5-2.8 12.5-4.7 18.7c-.3 1-.6 2-.9 3.1c-.3-1.1-.4-2-.4-2.8c0-.4 0-.8 .1-1.2c.1-.6 .2-1.2 .4-2c-.1-.1-.4-.4-.7-.7c-.2 .5-.3 1.1-.5 1.7c-.3 .9-.6 1.8-.9 2.7c-1 2.6-2.3 5.1-4.2 6.5c-.5-1.3 .1-2 .6-2.7c.1-.5 .1-1.2 .2-2c.1-1.7 .3-3.8 .9-4.5c0-1.3 .1-2.5 .2-3.7c.1-1.8 .2-3.5-.4-5.5c-.6 1.2-1.1 2.3-1.6 3.5c-.4 .9-.8 1.8-1.3 2.7c-.3-.6 0-2.1 .2-3.5c.2-1 .4-1.9 .5-2.4c.3-2.9 .3-5.8 .4-8.7c.2-5.6 1.3-11.1 1.7-16.7c.3-4.6 .2-9.4-.2-14c-.5-5.1-3.7-10.9-2.8-16c1.8 .8 1.5 2.8 2.5 4c-1-3-2.1-6-4-8.6c-.2 1.1 .1 4.2 .7 5.4c0 .1 .1 .1 .1 .2c-.3 .3-.6 .7-.9 1c1.1 5.1 2.4 10 2.9 15.2c.5 5-.5 10.1 .1 15c-1.3 2.4-.7 6.3-1.2 9c-.7 3.7-1.7 7.3-2.8 10.8c-.2 .8-.5 1.6-.8 2.4c-.2 .5-.3 .9-.5 1.3c-1.6 4.3-3.7 8.3-7.2 11.5c.7-3.8 1-8.1 1.5-12.3c.2-1.5 .3-2.9 .5-4.4c.5-3.6 1.2-7 2.3-10.2c-.2-.1-.4-.2-.8-.3c-.6 1.5-1.6 4.3-1.2 6c-.9 .9-1.1 3.5-1.3 5.6c-.1 1-.1 1.9-.2 2.5c0 .3-.1 .6-.1 .9c-.5 3.1-1.3 7-3.2 9.4c-.1-.1-.2-.2-.4-.3c-.6-.5-1.1-1-1.6-1.5c.5-1.3 1.1-2.7 1.6-4.2c.3-1 .6-2.1 .8-3.2c.1-.4 .1-.8 .2-1.2c.1-.9 .1-1.8 0-2.7c-.5 .9-.8 2.1-1.1 3.3c-.1 .3-.1 .5-.2 .8c-.1 .3-.1 .7-.2 1c-.3 1.8-.7 3.5-1.5 4.8c-.2 .4-.5 .7-.8 1c-1-.3-.6-2.7 0-5.2c.3-1.3 .7-2.6 1-3.7c.3-1.1 .6-1.9 .6-2.4c.7-4.6 .9-9.2 .6-13.8c-.4-4.3-.7-8.6-1.8-12.8c0 0 0 0 0 0c-.8-2.9-1.9-5.9-2.9-8.8c-.7-1.9-3.1-4.7-3.4-6.6c-4.5-5.1-8.4-11.4-12.1-17.1c-1.7-2.6-3-5.3-4.2-8.2c-1.1-2.7-1.2-7.2-2.8-9.4c.1-1.5 0-3.2-.4-4.9c-1-5.4-3.9-11.3-5.6-15.7c-.3 0-.5 .1-.8 .1c1.6 5.1 2.8 10.5 3.7 15.9c2.3 13.8 2.2 28.2-.7 41.7c-.9 4-1.9 8-3.2 11.9c-2 6.3-4.6 12.3-7.6 18.2c-1.1 2.1-3.4 6.9-6.2 11.5c-3.4 5.5-7.4 10.8-10.9 10.8c-.3-.3-.6-.8-.9-1.2c.7-1.4 1.5-2.8 2.4-4.4c2.3-1.5 5-4.9 6.8-8c.7-1.2 1.3-2.5 1.7-3.5c.9-.8 5-6 5.6-8.7c.1-.6 .1-1.1-.2-1.3l-1.2 1.2c-.9 1.5-2.2 4.1-3.7 7c-.8 1.5-1.7 3-2.6 4.5c-3.2 5-6.9 9.6-10.4 9.6c2.9-3.1 5.4-7.1 7.6-11.3c1.9-3.6 3.4-7.3 4.7-10.7c-.4-.1-.7-.1-.8-.1c-1.9 3.8-3.9 7.6-6 11.3c-.3 .6-.7 1.2-1 1.8c-1.1 1.9-5 9.6-7.6 9.5c.1-.4 .3-.8 .5-1.2c1.4-3.1 3.7-6.5 5.6-9.9c1.6-3 3-5.9 3.3-8.7c-2.4 1.3-4.6 4.8-6.6 8.3c-1.5 2.8-2.9 5.6-4.2 7.5c-.1 .1-.2 .3-.3 .4c-.8 .1-2.9 .1-3.3 1c0-2.8 3.3-6.5 4.9-9.7c.8-1.6 1.2-3 .6-4.3c-.7 1.2-1.3 2.4-2 3.6c-2.2 3.9-4.7 7.6-8.5 10.8c1.9-4 3.7-8.3 5.3-12.8c2.1-6.1 3.7-12.4 4.2-18.5c1.4-2 5.9-7.3 4.9-9.9c-4.5 6.9-8.8 15.6-14.4 22.6c-.1 .1-.2 .2-.3 .4c-1.2 1.5-2.6 3-3.9 4.3c-1.1 1-2.2 1.9-3.3 2.8c.8-2.1 1.9-4.1 3-6.2c.8-1.4 1.5-2.7 2.2-4.1c.1-.1 .1-.2 .2-.3c.2-.4 .4-.8 .6-1.2c1.5-3.3 2.8-7.1 4.8-9.9c-.8-2.5 2.3-7.2 5-10.9c1.1-1.5 2.2-2.9 2.9-3.8c.1-.1 .2-.2 .2-.3c-.1 0-.2 0-.3 .1c-1.7 .5-3.7 3.1-5.5 5.9c-1.9 3-3.5 6.3-4.2 7.6c-.8 .7-1.6 1.5-2.4 2.3c-1.1 1.1-2.2 2.3-3.3 3.4c-.3 .3-.6 .6-1 .9c-.4 .3-.8 .8-1.3 1.3c-.5 .5-1 1.1-1.5 1.7c-1.5 1.7-3.2 3.4-4.9 3.7c1.2-1.7 2.3-3.5 3.4-5.2c.7-1.1 1.3-2.2 2-3.3c.6-1 1.2-2 1.7-2.9c2-3.5 3.9-7 5.7-10.6c1.8-3.6 3.6-7.4 5.1-11.2c.3-.7 .5-1.4 .8-2.1c1-3 2-8.7 3.9-11.2c-.3-.3-.5-.5-.7-.8c-1.8 .6-3.7 9.5-4.5 11.4c-.3 .7-.6 1.3-.9 2c-2.5 5.4-6.2 10.5-10 14.9c-.9 1.1-1.9 2.1-2.9 3.1c-.7 .7-1.3 1.3-2 2c-1.6 1.5-3.3 3-5 4.4c-1.3 1.1-2.5 2.1-3.8 3.2c-2.8 2.3-9.5 8.7-13.4 8.4c-.1-1.1 6.2-5.7 7.2-6.7c-3.8 .8-9.6 6.2-12.9 9.1c-.2 .2-.4 .3-.5 .5c0 0-.1 .1-.1 .1c-.1-.1-.3-.2-.4-.3c-1.1-.5-2.6 .1-4.1 .8c-1.3 .6-2.5 1.4-3.7 1.6c-.3 .1-.6 .1-.9 .1c.2-.2 .4-.3 .6-.5c.7-.6 1.4-1.1 2.2-1.6c.2-.1 .4-.3 .6-.4c1.6-.9 3.4-1.7 5-2.7c.2-.1 .3-.2 .5-.3c.5-.3 1.1-.7 1.6-1c2.4-1.6 4.6-3.5 6.9-5.3c-.6-.1-1-.2-1.3-.2c-1.7 1.2-3.2 2.6-5 3.8c-.7 .5-1.3 .9-2 1.3c0-1.3 1.5-2.3 3.3-3.4c1.9-1.2 4-2.4 4.4-4c-.7 .3-1.3 .7-1.9 1.1c-2.4 1.5-4.5 3.5-6.7 5.2c-.2 .2-.4 .3-.6 .5c-1.9 1.4-4 2.6-6 3.7c-.9 .5-1.7 1-2.6 1.4c-1 .6-2.1 1.1-3.1 1.7c-.1-.4-.3-.8-.4-1.2c.6-.6 1.8-.7 2.8-1.2c.6-.3 1.1-.8 1.5-1.5c-.9 .3-1.7 .5-2.4 .8c-.7 .2-1.4 .5-2 .7c0-.1-.1-.2-.2-.3c.4-.3 .9-.6 1.3-1c.5-.3 1-.7 1.5-1c3.7-2.6 7.5-5.1 11.1-7.7c2.7-2 5.4-4.1 7.7-6.5c1.5-1.5 3-3.3 4.3-5.2c.3-.4 .6-.9 .9-1.3c.1-.1 .2-.3 .3-.4c.7-1.1 1.5-2.2 2.2-3.2c1.7-2.5 6.8-8.4 6.1-11.4c-2.4 4.3-4.8 8.1-7.8 12c-1.4 1.7-3.1 3.5-4.7 5.3c-.3 .3-.6 .7-.9 1c-.9 1-1.7 2.1-2.3 3.2c-1.4 1-2.8 2.1-4.3 3.1c-4 2.9-8.1 5.7-12.6 7.5c.6-2 2.5-3.3 3.9-4.7c0-1.7 1.5-2.3 1.4-3.9c-3.5 3.9-7.1 7.7-10.7 11.5c-1.2 1.2-2.3 2.5-3.5 3.7c-.8-1.2 1-1.4 .7-2.3c-.9-.9-2.9 2.4-3.5 2.9c-.2-.5-.4-.8-.5-1.1c-.8 .1-2.3 2.3-2.8 2.9c-.7-.1-1-.1-1.4-.2c0-1.3 1.4-2 1.5-3.5c-1.9 1.1-1.9 1.2-2.7 2.5h-1.2c1-1.4 1.9-2.7 3.2-4.5c-2.9 1.3-5.1 4.6-7.3 6.9h-1.5c-.2-1.9 3.2-4 4-6.2c.1-.3 .2-.6 .2-.9c-.8 .3-1.7 1-2.5 1.9c-.3 .3-.6 .6-.9 1c-.3 .4-.7 .9-1 1.3c-.9 1.2-1.8 2.6-2.7 3.8c-.8 1.2-1.7 2.3-2.4 3c.2-1.5 .7-2.8 1.4-4.1c-1.7-.8-2.9 5.6-4.7 6.5c0-1.5 1.3-6.2 2.7-9.8c-.2-.1-.4-.2-.7-.4c-2 4.1-3.2 8.4-3.8 13c-.3 .5-.6 1.2-.7 1.3c-1.2 1.3-2.2 2.4-3.3 3.6c-.7 .7-1.4 1.5-2.1 2.2c0-1.4 0-2.8 .1-4.1c.1-2.1 .1-4.2 .2-6.3c0-1.9 .5-4.2 .7-6.4c.1-1.5 .1-2.9-.2-4.1h-.7c-.3 1.9-.5 3.7-.6 5.5c-.3 3.5-.4 7-.5 10.5c-.1 3.8 0 7.7 0 11.7c-2.7-.4-3.2-8.2-3.3-13.4c0-.5 0-.9 0-1.4c0-1.3 0-2.3 0-2.9h-1c0 1.3 .1 2.6 .1 3.9c.2 3.5 .6 7 .6 10.3c-.1 5.9-.7 12.2-1.5 18.1c-.3 2-.6 4.1-.9 6.1c-1.2 6.9-3 13.6-5.7 20c-1.1 2.5-2.3 4.9-3.7 7.3c-.8-.1-1.9-2.7-2.7-5.2c-.7-2.2-1.3-4.5-1.4-5.2c-.7-3.7-1.2-11.7 .1-18c.1-.7 .3-1.3 .5-2c.7-2.5 1.7-4.5 3.2-5.7c.1-2.2 2.9-5.8 3.8-7.8c.4 1.2 .2 2.2-.4 3.2c.4 .2 .7 .3 1.1 .5c-.3 .2-.7 .3-1.1 .5c.2 .5 .4 .9 .7 1.5c-.4 .1-.7 .2-1 .3v2.7h1.5c-.2-.4-.3-.7-.4-1.1c.3-.5 .4-1.3 1.4-1.4c-.1-.5-.3-1-.4-1.5c.2-.1 .5-.2 .9-.4c-.2-.4-.4-.8-.7-1.4c.3-.1 .5-.2 1-.4c.1-.3 .2-.8 .3-1.3c.4 5.7-1.6 10.4-3.4 15.2c-.9 2.3-1.7 4.6-2.1 7.1c.8-.8 2.8-2 2.5-3.3c.7-1.1 1.2-2.3 1.8-3.5c2.9-6.7 3.8-15.1 3.5-21.9c-.2-4.3-.5-8.1 .1-12.4c0-.3 .1-.7 .1-1c.1-.8 .2-1.6 .4-2.4c.2-1.7 .4-3.4 .1-4.9c-1.3 2-1.7 4.5-1.9 7.1c0 0 0 0 0 0c-.2 2-.2 4-.4 5.8c-.2 .2-.5 .6-1.1 1.3c.6 .2 1.1 .3 1.6 .5c-4 8.1-8.6 16-11.2 24.3c-.6 1.8-1.1 3.6-1.4 5.5c-1.2 5.7-1.2 11.7 .6 18.1c.3 .9 .6 1.8 .9 2.7c3 8.5 8.4 15.8 11.6 24.2c.7 1.7 1.5 4 2.1 6.7c1.5 6 2.4 13.4-.6 17c.5 .3 .9 .9 1.2 1.7c1.5 3.9 1.3 12.5 1.3 15c0 1.1-.1 4.2-.3 7.5c0 .5-.1 1-.1 1.5c-.1 1.4-.3 2.7-.5 4c-.1 .6-.2 1.2-.4 1.8c-.2 .6-.3 1.2-.5 1.7c-.1 .3-.3 .6-.4 .9c-.3 .5-.6 .9-1 1c0 .2 0 .4-.1 .6c-.1 .8-.2 1.5-.4 2.3c-.8 2.9-2.1 5.7-3.2 8.4c-.9 2.3-3.5 6.6-3 9c.3 .3 .5 .6 .7 .8c.2-.2 .3-.3 .6-.6c.5 .8 .9 1.5 1.4 2.3c1.1 1.9 2.1 3.8 3 5.9c.7 1.7 1.7 7.6 3 8.6c-.7 2.5 .5 6.4 .3 9.2c-.1 1.7-.4 3.4-.7 5c-.3 1.6-.7 3.2-1.1 4.8c-.2 .9-.7 2.8-1.3 4.8c-1.3 4.2-3.2 9.4-5.2 9.4c1.1-2.9 1.8-5.7 2.5-8.7c.4-1.6 .7-3.2 1.1-4.8c.1-.5 .2-1 .2-1.6c.4-3.5 .2-8.7 1.8-10.8c-.7-1.7 .4-8.3-1.4-9.5c-.1-2-1.1-8.8-3-11.7c-.4-.6-.8-1-1.2-1.2c0 .7 0 1.4 0 2c0 5.3 .7 10.4-.3 15.9c-1.4 8.1-5.3 14.5-8.6 21.8c.3 .4 .7 .7 1 1c.4 1.8 .8 3.6 1.1 5.3c1.6 9.3 1.2 17.7-2.8 27c0 .1-.1 .2-.1 .3c-2.5 5.7-5.3 10.7-9.3 15.5c-2.2 2.6-6.2 8.9-9.3 10.3c2.8-7.5 5.7-15 10.1-22c-2.9 0-5.4 7.4-6.3 9.4c-1.9 4-4.2 6.8-7.1 10.2c-2 6.5-2.4 13.4-3.2 20.3c0-6.3 .9-12.2 1.7-18.5c-5.8 2.3-4.1 16.6-6.7 21.3c.5-5.5 2.3-10.8 2.6-16.3c-3.8 5.2-7.4 10.9-8.5 17.4c-.5 2.7-.4 5.6-.1 8.3c.1 1 1.6 5 .9 6c-3.4-6.3-1.7-12.5-.4-19.2c.7-3.5 1.4-6.7 2.5-10.1c.7-2.1 2.3-4.7 1.5-6.8c.7 .1 1.2 .2 1.9 .3c-.2-1.5 0-1.1-1.9-2.3c-1 .4-1.1 1.8-2.2 1.9c-.2-.3-.4-.6-.7-1.1c-.7 1.1-1.2 2-1.8 3c.2 .1 .5 .3 1 .6c-.6 .4-.8 1-.6 1.7c.5 .5 1 .3 2.1-.7c-.3-.2-.5-.4-1-.8c0-.3 0-.9-.1-1.5c.3 0 .5-.1 .9-.1c0 .4 0 .8 .1 1.2c.3 .1 .6 .3 1 .5c-.6 1.5-1.1 2.9-1.8 4.6c-3.4 3.4-6.4 6.8-8.8 11c-3.7 6.3-2.8 12.3-3.6 19.3c-6.1-11.5-4.8-22.4 .7-34.1c2.9-6.3 7.2-12 10.2-18.2c1.2-2.5 8.6-13.7 6.9-16.8c-3.1 1.9-4.8 9.6-7.4 12.7c-3.3 4-7.4 7.1-11.7 9.9c1.5-4.6 6.8-9.3 9.3-13.7c2.7-4.8 4.3-10.1 7-14.8c-.2-2.1 1.6-10.7 2.9-12.2c-.1-1.8 .3-3.6-.3-5.4c.4 .3 .8 .7 1.2 1.1c.5-.7 1-1.3 1.3-1.8c.6-1.5-1.2-1.9-1.4-3.5c.9 .6 1.3 .9 1.9 1.3c0-.3 .1-.7 .1-1.1c-.5-.4-1.1-.9-1.5-1.2v-1.9c.8-.7 .7-1.5-.2-2.4c-.5 0-.9 .1-1.5 .1c.3 .8 .5 1.3 .7 1.9h-.7c-.1-.3-.3-.6-.4-.9l-.3 .1c.2 .8 .4 1.7 .6 2.6c.2 .1 .6 .3 1.1 .5c-.4 .5-.8 1-1.1 1.5c.2 .6 .4 1.3 .6 2c-.4 .1-.6 .1-.9 .1c-.4-2.5-.9-5-1.3-7.6l-.1-.1-.4-.4c-.3 .1-.4 .4-.6 .8c-.6 1.9 .2 6.7 .3 8.3c0 .1 0 .1 0 .2c.2 3.1 .4 6 .2 9c-.1 1-.2 2.1-.3 3.2c-.1 .1-.4 .4-.6 .6c0 0 0 0 0 0c-.9-1.3 .2-6.9-.2-8.9c.1-.1 .2-.2 .4-.4c-.9-1.1-1.4-2.8-1.5-4.8c.2 3.4 0 7-1.3 8.1c.2 2.7-.9 4.6 0 7.3c.3 .9 .9 1.7 1.3 2.5c.3 .7 .6 1.3 .5 2.1c-.4-.3-.7-.7-.9-1c-.7-1.2-.9-2.7-2-3.8c-1.4 4.7-2.9 9.2-5.2 13.5c-1.2 2.3-2.7 7.3-5.5 7.9c2.7-5.5 6.3-12.2 7-18.3c2.4-3.8 2.1-8.6 1.3-12.6c-.3-1.8-1.9-7.1-.3-8.6c-.3-1.1 0-2.3 .3-3.5c.3-1.1 .6-2.1 .5-3.1c-.3-3.4-2.4-7.3-3.6-10.5c-2.2-6.1-4.6-12.2-6.9-18.3c-.3-.8-.6-1.5-.9-2.3c-1.3-3.6-2.2-7.3-2.6-11c-1-8.2 .2-16.6 2.6-24.6c1-3.2 2.1-6.4 3.5-9.5c6.2-14.5 18.3-25.7 23.8-40.8c3.7-10.2 2.8-20.5 1.9-30.9c-.4-4.6-.8-9.2-.8-13.8c-.3-.6-.5-.9-.8-1.4c-.7 .7-1.3 1.2-1.9 1.8h-1c-.3 1.2 .2 2.6 .5 3.7c.2 .1 .5 .1 .8 .2c0 2.9 0 6.4 .6 9.7c.4 1.9 .9 3.6 1.8 5.1c-.2 .3-.3 .5-.5 .8c.2 .6 .4 1.1 .6 1.8c-.4 .3-.8 .6-1 .8c-.3 2-.7 4.4-.1 6.3c-.1 .1-2.5 3.8-2.3 3.6v1.6h1.3c.1-.3 .2-.5 .3-.9c.3 0 .7 0 1.1-.1c.2-1.1 .7-2 1.7-2.6c-3.8 16.6-10.9 31.8-21.8 45.1q-1.4-.6-2.8-.3c0 1.2 1.1 1.1 2 1.4c-.2 .4-.4 .8-.6 1.2c-.6 0-1.1 0-1.8 .1v1.8c-.8 .1-1.4 .1-2 .2c-.1 1.1 .8 1.3 1.4 1.8h-1.7c-.5 1.1-.3 3.5-.6 4.8c-.5 2.1-1.6 4.2-2.4 6.3c-.1 .3-.2 .6-.3 .9c-1.4 3.7-2.9 8-2.7 11.9c-.8 1.2-.3 2.6-.5 3.9c-2.7-3.9-1.2-6.7-1.3-11.2c-.1-3.2-.4-6.3-.9-9.4c-.3-1.5-.6-3.1-.9-4.6c.3-.5 .7-1.3 1.2-2.3c.3 .6 .6 1.2 1 2c.3 .2 1 .5 1.7 .9c-.3 .1-.6 .2-1 .3v1.2H56c.4-.6 1.3-1 1.7-2.2c-.8-.1-1.4-.1-2.2-.2c.3-.6 .5-1.1 .8-1.8h-2c-.1-.1-.1-.2-.2-.3c.4-.1 .8-.2 1.1-.3l-.3-.4c.5 .2 .9 .4 1.8 .8c-.2-.7-.4-1.1-.5-1.5c.5-.2 1.1-.5 1.8-.8c0-.5 .1-1 .1-1.7h1.2c.4-.9 .2-1.6-.6-2.4c.3 0 .7-.1 1.2-.2c.1-.3 .2-.5 .4-1c.3 .1 .6 .3 1 .5c.1-.1 .4-.3 .6-.6c-.1-.2-.3-.5-.5-.8c.7-.6 1.3-1.2 2-1.7c0-.4 0-.9 0-1.3c4.2-4.2 8.1-8.4 11.8-13c2.3-2.9 7.9-8.3 7.9-12c.3-.1 .5-.2 .9-.3v-.8c-1-.1-1.3 1.2-2.3 .9c-2.2 7.3-10.4 15-15.6 20.5c-6 6.4-13.9 12.5-17.3 20.7c-.1 .2-.1 .3-.2 .5c-2.9 7.4-.7 13.7 2.9 20.6c1.8 3.4 3.1 4.6 3.2 8.5c0 1.5 0 3.3 .1 5c.1 2.3 .5 4.5 1.5 6.3c-.6 .1-1 .2-1.6 .3v1.3h.9c0 .6 .1 1.1 .1 1.8c.2 .1 .5 .2 .9 .3v.8c1-.3 1.8 .7 2.3 2.2c.9 2.6 1.1 6.7 1.1 7.7c.4 .3 .9 .6 1.4 .9c-1.4 1.5 .7 2.7-.2 4.2c.8-.4 1.1-.6 1.4-.7c.8 1.1-.3 2-.2 3.1c.2 .3 .6 .7 .9 1c-.2 .2-.4 .5-.6 .7c-.4-.6-.8-1.1-1-1.6c-.2-.9-.4-1.6-.6-2.3c-.9 1.8 .9 3 .3 4.9c.5-.3 .7-.4 1.1-.6v1c-.8 .7-.7 1.4 .2 2.3c.1 0 .2 0 .2-.1v-1.8s0 0 0 0c.3-.1 2-.2 1.9-.3c.3 1.2-1.8 .7-1.4 2.1h1.8c.1-.4 .1-.9 .2-1.3c.3 0 .4 0 .6 0c.8 2.4 .5 3.8-.2 6.3c-.2 .7-.6 2.4-1.1 4c-.4 1.2-.8 2.3-1.3 2.6c.3 1.5-.6 2.8-.6 4.4c-.7-.4-1-.8-.9-1.5c-1 1.2-1.3 4.1-1.9 5.6c-1.1 2.9-2.8 5.5-4.8 7.8c2.5-7.5 2.5-12.4 1.9-20c.4-.9 .8-1.6 1.2-2.5c-2.9 1.1-4.9 6.4-6.6 8.8c-1.4 2-5.8 9-8.5 9c3.1-4.4 6.5-8.5 9.2-13.3c.6-1 1.3-2.2 2-3.6c.7-1.4 1.5-2.9 2-4.3c.9-2.3 1.3-4.6 .7-6.3c-.5 1.5-1.1 2.9-1.7 4.3c-1.1 2.6-2.2 5.1-3.5 7.5c-2.5 4.6-5.3 8.9-8.5 12.8c-4.6 5.6-10.1 10.6-16.5 15.3h-.6c-3.1 2.3-6 4.1-9.5 5.7c1.6-6.6 11.6-13.1 15.8-18.5c5-6.5 8.7-14.2 11.7-21.8c1.1-2.7 2.1-5.9 2.9-9.3c1.7-7.3 2.6-15.8 1.3-23.2c-.8-4.7-2.5-8.9-5.4-12.2c.5 4 .9 8.1 1 12.2c0 .1 0 .1 0 .2c.1 5.9-.4 11.7-2.3 17.3c-.2-5.5 .9-11.2 1-16.8c0-.3 0-.6 0-1c0-.5 0-1.1-.1-1.6c-.4-6-1.4-12.5-4.1-18.1c-.6-1.3-1.4-2.6-2.2-3.7v6.6c-1.5-.6-1-8.1-1.4-9.8c-.7-3.2-1.6-5-1.1-8.3c.2-1.7 .7-3.2 1.2-4.8c2.1-5.6 6-10.4 9.7-15.1c3.5-4.5 7.1-8.9 10.6-13.4c1.6-2 3.1-4.1 4.5-6.3c2.5-3.8 4.4-7.7 5.7-12.1c.6-1.9 .9-10 2.4-11.1c0-1.9 0-3.8 0-5.8c-1-1-.1-2.3-.8-3.7c.1 .1-.2-.2-.4-.4c-.8 .8-.1 7.1-.2 8.8c-.3 3.5-.6 6.9-1.6 10.3c-2.5 8.9-8.1 16.7-13.8 23.9c-1.5 1.8-3 3.7-4.5 5.5c-.6 .8-1.3 1.5-1.9 2.3c-.6 .7-1.2 1.4-1.7 2.1c-2.1 2.7-4.1 5.4-5.9 8.3c-.5 .8-1 1.6-1.6 2.4c-.7 .9-1.4 1.8-2.1 2.8c-3.6 4.5-7.5 9.5-7.3 14.8c-1.6 2.3-1 9-.6 11.4c.2 1.3 .5 2.6 .8 4c.7 2.9 1.4 5.9 1.6 8.9c0 .6 .1 1.3 .1 1.9c.2 8.7-2.4 16.9-5.6 24.9c-1-2.1 .9-8.6 .7-11.1c-.1-3-.6-6-1-9c-.3-3-.3-12.3-2.2-15.6c-.2-.3-.4-.6-.6-.8c.5-5.3-2-11.2-2.4-16.6c-.4-5.9 1.7-11.5 5-16.4c.5-.7 1-1.4 1.5-2.1c8-10.2 20.2-18.9 24-31.8c1.5-5 .5-8.5-.2-13.4c-1.1-8.4 .8-15.9 2.6-24c1.3-5.7 .1-11.7-.4-17.4c-.5-5.7-.3-11.3 .2-17c2.3-27.5 20.9-48.2 37.1-68.9c3.4-4.4 7.8-7.5 10.7-12.2c3.5-5.6 7.4-10.9 11.2-16.3c7.5-10.5 13-21.8 22.1-31.2c9.2-9.5 19.3-16.1 31.2-21.1c1.5-.6 3-1.2 4.5-1.8c.4-.2 .9-.3 1.3-.5c4.1-1.5 8.4-2.8 12.7-3.9c2.5-.6 5-1.1 7.5-1.6c5.6-.9 11-.4 16.5-.2c2.2 .1 4.5 .1 6.8 0c3.8 1.8 8.8 1.5 13.7 .5c4.3-.8 8.6-2.2 11.9-3c1.4-.3 2.8-.7 4.2-1c5.7-1.4 11.5-2.5 17.3-2.4c5.8 .1 11.6 1.6 17.2 3.6c2 .7 4 1.4 6 2.2c2.5 .9 5 1.8 7.4 2.7c6.2 2.1 12.3 4.2 17.6 7.5c2.6 1.6 5 3.6 7.2 6c3.4 3.8 5.9 8.2 8.8 12.4c2.2 3.1 5 5.6 7.1 8.9c2.5 4 3.8 8.9 6.8 12.5c2.6 3.1 5.4 6.4 8.3 9.2c3.1 3.1 7.1 4.7 10.4 7.5c4 3.4 8.1 7 11.8 10.8c8.1 8.2 11.8 17 17.1 26.8c-.2 3.5 2.6 13-.4 15.8c0 4-3.6 8.1-2.8 12.2c1.4-2.5 1.8-4.9 2.9-7.1c1 .1 1.6-.5 2.3-1.6c-.8 .2-1.4 .4-1.9 .6c0-.1-.1-.2-.2-.3c.3-.2 .6-.4 1-.7c-.2-1.5 .2-2.6 1.8-3.5c-.6-.3-.9-.4-1.4-.6c.9-3 .5-6.1 .6-9.6c9.3 17.5 21.2 34.5 21.6 55.2c3.1 6.4 5.5 12.9 8.2 19.4c-.4 7.8 3.2 16.3 3.7 24.2c.3 4.3 1.2 11.5 .3 17.2c-.4 2.6-1.2 4.9-2.5 6.6c.1 1.7-.9 3.1-1.3 5c1 1.2 1.2 3.4 1.7 5.4c.2 .9 .5 1.8 .9 2.5c.7 1.2 1.9 2.1 2.7 3.3c.9 1.4 1.3 3.5 2.2 4.6c.1 3.4 1.1 7.4 2.1 10.7c.8 2.5 1.2 7.8 2.7 9.7c-.8 8.6 1.7 17.3 .2 26.1zm-31.6-31.4h-.8v-1.4c1.3 0 .8 .8 .8 1.4zm-16 33.8c-1.5 4.7-2.7 8.4-5.8 11.5c-1.1-2.8 .9-7.1 1.5-9.9c.8-3.6 1.7-7.4 2.1-11c.8-7.2 .3-14.5 1-21.7c0-.3 .1-.6 .1-.8c1.1 3 2.4 5.9 3.6 8.8c1.7 4.2 3.1 8.5 2.9 13.2c-.2 7.3-3.3 13.8-6.9 20c-.1-.1-.2-.1-.2-.2c.9-2.6 1.7-5.2 2.8-8.2V324h-1.1zm-54.8 79.1c-1.4 .4-1.5-.8-2.6-1c1.5-.5 1.6 .6 2.6 1zm10.9-100.9v-2.3h.9c-.1 .9 .4 1.8-.9 2.3zm.9-5.6c.2 0 .4-.1 .8-.2v2.4c-1.2-.9-.7-1.6-.8-2.3zm4.6-27.5c.4 1.2 .9 2.5 1.3 3.7c-1-1.1-1.5-2.3-1.3-3.7zM122.8 190.3v2.4c-.8-.8-.1-1.6 0-2.4zM53.9 401.8c2.5-5.8 4.2-11.9 6.6-17.9c1.8 1.7-5.1 16.3-6.6 17.9zm-17.2-88v2.4c-.4-.8-.4-1.6 0-2.4z"/></svg>